<svg version="1.1" xmlns="http://www.w3.org/2000/svg" viewBox="0 0 929.4278491384442 559.1133239029571" width="929.4278491384442" height="559.1133239029571" class="excalidraw-svg"><!-- svg-source:excalidraw --><metadata></metadata><defs><style class="style-fonts">
      </style></defs><rect x="0" y="0" width="929.4278491384442" height="559.1133239029571" fill="#121212"></rect><g transform="translate(659.0282635030408 435.27199503552947) rotate(0 115.80633528256735 3.926389267343666)" stroke="none"><path fill="#d3d3d3" d="M 3.09,1.32 Q 3.09,1.32 2.11,3.99 1.13,6.66 0.64,10.65 0.15,14.63 0.23,21.97 0.31,29.31 0.73,33.13 1.16,36.95 2.74,42.94 4.32,48.92 5.16,52.33 5.99,55.74 10.15,61.97 14.31,68.21 16.86,71.78 19.40,75.36 23.36,79.39 27.32,83.41 32.59,86.91 37.87,90.40 44.98,94.16 52.08,97.92 55.89,99.93 59.69,101.93 66.27,103.43 72.85,104.93 76.83,105.57 80.81,106.21 88.14,107.26 95.47,108.31 99.68,108.76 103.89,109.20 110.94,109.77 117.98,110.34 121.36,110.42 124.75,110.50 129.38,110.27 134.02,110.05 136.83,109.72 139.64,109.40 146.20,107.97 152.77,106.55 156.77,105.57 160.77,104.58 167.42,103.06 174.06,101.54 177.52,100.44 180.98,99.34 187.59,96.39 194.19,93.45 197.72,91.47 201.25,89.50 208.71,84.22 216.17,78.94 220.11,75.95 224.05,72.96 230.94,66.85 237.83,60.75 241.48,57.07 245.12,53.39 248.38,47.56 251.64,41.73 252.98,38.16 254.32,34.59 255.27,28.41 256.21,22.23 256.50,18.77 256.78,15.31 255.89,9.31 255.00,3.31 253.15,-4.54 251.31,-12.39 247.60,-20.43 243.90,-28.46 239.72,-35.64 235.54,-42.81 231.16,-49.21 226.78,-55.62 223.13,-59.75 219.47,-63.89 215.75,-67.08 212.03,-70.27 206.46,-73.42 200.89,-76.57 194.36,-79.82 187.84,-83.06 178.42,-86.27 169.01,-89.48 156.05,-92.34 143.10,-95.20 130.80,-97.56 118.50,-99.91 108.94,-100.52 99.38,-101.13 90.43,-98.07 81.48,-95.01 69.64,-90.33 57.81,-85.64 46.11,-79.56 34.40,-73.47 24.64,-66.45 14.89,-59.43 6.71,-50.91 -1.45,-42.40 -7.12,-33.99 -12.79,-25.59 -16.31,-19.06 -19.84,-12.52 -21.63,-5.48 -23.42,1.56 -23.44,7.74 -23.46,13.92 -22.04,18.55 -20.62,23.18 -18.57,25.60 -16.52,28.02 -14.50,29.68 -12.48,31.34 -9.24,34.08 -6.01,36.83 -5.70,37.39 -5.40,37.96 -5.29,38.59 -5.18,39.23 -5.28,39.86 -5.38,40.50 -5.68,41.07 -5.98,41.64 -6.44,42.08 -6.91,42.53 -7.49,42.80 -8.07,43.07 -8.71,43.15 -9.35,43.22 -9.97,43.08 -10.60,42.95 -11.16,42.62 -11.71,42.29 -12.13,41.81 -12.55,41.32 -12.79,40.72 -13.03,40.13 -13.07,39.49 -13.11,38.84 -12.94,38.22 -12.77,37.60 -12.41,37.07 -12.05,36.54 -11.54,36.14 -11.04,35.75 -10.43,35.54 -9.82,35.33 -9.18,35.33 -8.53,35.33 -7.92,35.53 -7.31,35.73 -6.80,36.12 -6.29,36.50 -5.92,37.03 -5.56,37.56 -5.38,38.18 -5.21,38.80 -5.24,39.44 -5.27,40.08 -5.50,40.68 -5.74,41.28 -6.15,41.77 -6.57,42.26 -7.11,42.60 -7.66,42.93 -8.29,43.07 -8.92,43.22 -9.56,43.15 -10.19,43.08 -10.78,42.82 -11.36,42.55 -11.83,42.11 -12.30,41.67 -12.30,41.67 -12.30,41.67 -13.05,40.38 -13.81,39.09 -15.44,37.59 -17.08,36.08 -19.13,33.78 -21.18,31.48 -23.40,28.12 -25.61,24.77 -27.16,19.36 -28.70,13.94 -28.61,7.11 -28.51,0.28 -26.49,-7.35 -24.47,-14.99 -20.81,-21.76 -17.14,-28.54 -11.19,-37.29 -5.24,-46.03 3.28,-54.86 11.81,-63.69 21.89,-70.91 31.97,-78.14 43.92,-84.33 55.88,-90.53 67.85,-95.27 79.82,-100.01 89.69,-103.19 99.57,-106.37 109.53,-105.73 119.48,-105.08 131.86,-102.72 144.24,-100.35 157.48,-97.42 170.72,-94.48 180.45,-91.15 190.19,-87.81 196.85,-84.50 203.51,-81.18 209.50,-77.75 215.49,-74.33 219.48,-70.89 223.48,-67.45 227.36,-63.06 231.24,-58.68 235.75,-52.12 240.26,-45.57 244.59,-38.18 248.93,-30.79 252.86,-22.26 256.80,-13.73 258.77,-5.63 260.74,2.46 261.74,9.22 262.75,15.98 262.18,19.52 261.62,23.07 260.56,29.84 259.50,36.61 257.91,40.49 256.31,44.37 252.66,50.76 249.00,57.15 245.23,60.99 241.46,64.83 234.45,71.09 227.43,77.35 223.44,80.45 219.45,83.54 211.78,89.04 204.11,94.54 200.37,96.69 196.63,98.83 189.68,102.04 182.72,105.25 179.07,106.23 175.41,107.22 168.84,108.84 162.28,110.45 158.22,111.55 154.15,112.64 147.04,114.32 139.94,116.00 137.14,115.91 134.35,115.82 129.34,116.15 124.33,116.47 120.94,116.07 117.56,115.66 110.45,115.11 103.34,114.55 99.03,114.11 94.72,113.67 87.31,112.64 79.91,111.61 75.77,110.89 71.63,110.17 64.43,108.47 57.22,106.76 53.37,104.78 49.52,102.79 42.15,98.93 34.79,95.07 29.03,91.27 23.27,87.46 18.96,83.16 14.65,78.86 11.92,75.23 9.19,71.60 4.45,64.42 -0.27,57.24 -0.88,53.88 -1.48,50.51 -3.29,44.09 -5.11,37.68 -5.58,33.57 -6.05,29.46 -6.32,21.69 -6.59,13.92 -6.11,8.89 -5.64,3.86 -4.37,1.26 -3.09,-1.32 -2.89,-1.67 -2.68,-2.02 -2.40,-2.32 -2.12,-2.61 -1.78,-2.83 -1.43,-3.04 -1.05,-3.17 -0.66,-3.30 -0.26,-3.33 0.14,-3.36 0.54,-3.29 0.94,-3.23 1.31,-3.07 1.69,-2.91 2.01,-2.66 2.33,-2.42 2.59,-2.10 2.85,-1.79 3.02,-1.42 3.19,-1.05 3.27,-0.66 3.35,-0.26 3.34,0.14 3.32,0.54 3.20,0.93 3.09,1.32 3.09,1.32 L 3.09,1.32 Z"></path></g><g transform="translate(733.6136123752804 365.9192189437531) rotate(0 -57.57375619027357 -74.58542282250379)" stroke="none"><path fill="#d3d3d3" d="M -2.28,2.12 Q -2.28,2.12 -7.13,-3.18 -11.97,-8.50 -19.02,-18.44 -26.06,-28.37 -30.53,-35.22 -35.00,-42.07 -41.41,-52.52 -47.83,-62.98 -51.99,-68.84 -56.15,-74.70 -60.58,-81.00 -65.00,-87.29 -71.69,-95.14 -78.38,-102.98 -86.89,-112.74 -95.39,-122.51 -99.75,-127.40 -104.11,-132.30 -106.78,-135.54 -109.45,-138.78 -111.36,-140.22 -113.27,-141.66 -114.11,-142.93 -114.96,-144.20 -115.55,-144.26 -116.14,-144.33 -116.68,-144.58 -117.21,-144.83 -117.64,-145.24 -118.07,-145.65 -118.34,-146.18 -118.62,-146.70 -118.71,-147.29 -118.81,-147.87 -118.71,-148.46 -118.61,-149.04 -118.33,-149.56 -118.05,-150.09 -117.62,-150.49 -117.18,-150.90 -116.64,-151.14 -116.11,-151.39 -115.52,-151.45 -114.93,-151.51 -114.35,-151.38 -113.77,-151.25 -113.26,-150.94 -112.76,-150.64 -112.38,-150.18 -112.00,-149.73 -111.78,-149.18 -111.56,-148.63 -111.53,-148.03 -111.50,-147.44 -111.66,-146.87 -111.83,-146.30 -112.16,-145.81 -112.50,-145.32 -112.97,-144.97 -113.44,-144.61 -114.00,-144.43 -114.57,-144.24 -115.16,-144.24 -115.75,-144.24 -116.31,-144.44 -116.87,-144.63 -117.34,-144.99 -117.81,-145.35 -118.14,-145.84 -118.47,-146.33 -118.63,-146.91 -118.79,-147.48 -118.75,-148.07 -118.72,-148.66 -118.49,-149.21 -118.27,-149.76 -117.89,-150.21 -117.50,-150.66 -116.99,-150.96 -116.48,-151.26 -115.90,-151.39 -115.32,-151.51 -115.32,-151.51 -115.32,-151.51 -112.11,-148.90 -108.90,-146.29 -107.08,-144.24 -105.27,-142.20 -102.71,-139.01 -100.15,-135.83 -95.77,-130.92 -91.38,-126.01 -82.84,-116.23 -74.30,-106.46 -67.45,-98.43 -60.59,-90.41 -56.15,-84.14 -51.71,-77.87 -47.42,-71.88 -43.12,-65.88 -36.71,-55.52 -30.29,-45.17 -25.83,-38.45 -21.36,-31.73 -14.47,-22.15 -7.58,-12.56 -2.64,-7.34 2.28,-2.12 2.51,-1.82 2.73,-1.51 2.87,-1.16 3.01,-0.81 3.06,-0.44 3.12,-0.07 3.08,0.30 3.05,0.67 2.92,1.03 2.79,1.38 2.59,1.70 2.38,2.01 2.11,2.27 1.83,2.52 1.50,2.71 1.17,2.89 0.81,2.99 0.44,3.09 0.07,3.10 -0.30,3.10 -0.67,3.02 -1.03,2.94 -1.37,2.77 -1.71,2.61 -2.00,2.36 -2.28,2.12 -2.28,2.12 L -2.28,2.12 Z"></path></g><g transform="translate(614.5397846776536 170.94986554651052) rotate(0 20.935985292181662 -11.122119706346737)" stroke="none"><path fill="#d3d3d3" d="M 4.92,1.23 Q 4.92,1.23 3.48,5.66 2.05,10.10 1.69,12.33 1.33,14.56 1.29,17.18 1.24,19.80 3.01,22.72 4.78,25.65 6.63,28.25 8.49,30.85 11.07,27.96 13.65,25.07 17.39,22.86 21.12,20.64 23.18,18.95 25.23,17.26 27.97,14.64 30.71,12.02 32.20,10.27 33.69,8.52 35.34,6.41 36.99,4.31 40.83,-1.51 44.68,-7.34 46.63,-11.85 48.58,-16.35 49.24,-19.05 49.91,-21.75 50.75,-26.44 51.60,-31.12 51.82,-34.26 52.05,-37.40 51.22,-42.84 50.39,-48.28 49.69,-50.69 48.99,-53.11 43.42,-52.30 37.85,-51.49 31.75,-48.36 25.65,-45.24 19.28,-40.64 12.91,-36.03 7.02,-27.60 1.14,-19.17 -2.51,-10.82 -6.16,-2.46 -7.70,5.04 -9.25,12.56 -9.18,17.84 -9.10,23.12 -8.85,25.86 -8.59,28.61 -8.36,30.64 -8.12,32.67 -8.21,33.25 -8.30,33.83 -8.57,34.36 -8.84,34.88 -9.27,35.30 -9.69,35.71 -10.22,35.96 -10.76,36.22 -11.34,36.29 -11.93,36.36 -12.51,36.24 -13.09,36.12 -13.60,35.82 -14.11,35.52 -14.49,35.07 -14.88,34.63 -15.11,34.08 -15.33,33.53 -15.37,32.94 -15.41,32.36 -15.26,31.78 -15.11,31.21 -14.78,30.72 -14.45,30.23 -13.99,29.86 -13.52,29.50 -12.96,29.31 -12.41,29.11 -11.82,29.10 -11.22,29.10 -10.66,29.28 -10.10,29.46 -9.63,29.81 -9.15,30.17 -8.81,30.65 -8.48,31.14 -8.31,31.70 -8.15,32.27 -8.17,32.86 -8.20,33.45 -8.41,34.00 -8.62,34.56 -9.00,35.01 -9.38,35.46 -9.88,35.78 -10.38,36.09 -10.96,36.22 -11.54,36.35 -12.12,36.30 -12.71,36.24 -13.25,36.00 -13.79,35.75 -14.22,35.35 -14.66,34.95 -14.94,34.43 -15.22,33.91 -15.32,33.33 -15.43,32.75 -15.43,32.75 -15.43,32.75 -15.24,30.72 -15.05,28.69 -14.86,25.94 -14.67,23.19 -14.74,17.32 -14.82,11.45 -13.18,3.34 -11.53,-4.76 -7.69,-13.70 -3.84,-22.63 2.60,-31.85 9.04,-41.08 15.77,-46.17 22.49,-51.25 29.49,-54.98 36.49,-58.71 43.23,-59.67 49.96,-60.63 52.70,-58.38 55.43,-56.13 56.33,-52.79 57.23,-49.44 58.40,-43.10 59.57,-36.75 59.18,-33.41 58.79,-30.07 58.19,-24.82 57.59,-19.56 56.62,-16.58 55.65,-13.60 53.77,-8.28 51.89,-2.96 49.32,1.76 46.76,6.48 45.41,8.27 44.05,10.06 42.10,12.37 40.15,14.67 38.50,16.23 36.84,17.78 33.94,21.17 31.05,24.55 28.69,26.37 26.33,28.19 23.22,30.69 20.12,33.18 16.06,36.80 12.00,40.42 8.90,40.95 5.80,41.49 3.54,40.54 1.27,39.59 -0.94,36.41 -3.16,33.23 -4.40,31.28 -5.63,29.34 -6.44,27.33 -7.24,25.32 -8.04,22.48 -8.84,19.64 -8.30,16.15 -7.76,12.66 -7.16,10.30 -6.56,7.95 -5.74,3.35 -4.92,-1.23 -4.70,-1.80 -4.48,-2.37 -4.13,-2.87 -3.78,-3.37 -3.32,-3.78 -2.86,-4.18 -2.32,-4.46 -1.78,-4.75 -1.18,-4.89 -0.59,-5.03 0.01,-5.03 0.62,-5.03 1.22,-4.88 1.81,-4.73 2.35,-4.45 2.89,-4.16 3.35,-3.75 3.80,-3.35 4.15,-2.84 4.50,-2.34 4.71,-1.76 4.93,-1.19 5.00,-0.58 5.07,0.01 4.99,0.62 4.92,1.23 4.92,1.23 L 4.92,1.23 Z"></path></g><g transform="translate(579.2101939498095 214.13208690851377) rotate(0 -87.0175714556985 89.63387633349612)" stroke="none"><path fill="#d3d3d3" d="M 1.64,3.29 Q 1.64,3.29 -3.67,5.79 -8.99,8.29 -10.74,9.95 -12.48,11.60 -13.84,15.79 -15.20,19.98 -15.74,22.73 -16.29,25.48 -17.49,29.66 -18.68,33.83 -19.20,38.38 -19.71,42.92 -19.72,45.68 -19.73,48.45 -21.09,55.45 -22.44,62.44 -23.33,66.20 -24.22,69.96 -24.65,75.73 -25.08,81.51 -25.31,87.42 -25.54,93.32 -25.47,96.61 -25.40,99.89 -26.66,107.87 -27.93,115.86 -28.87,120.36 -29.81,124.85 -31.36,132.02 -32.91,139.18 -33.42,142.59 -33.93,146.00 -35.82,151.41 -37.72,156.82 -38.73,159.62 -39.73,162.41 -42.31,165.76 -44.88,169.11 -46.28,171.01 -47.67,172.91 -55.44,175.46 -63.22,178.01 -67.76,179.22 -72.29,180.44 -80.03,181.70 -87.77,182.97 -93.73,183.48 -99.69,184.00 -102.99,184.38 -106.28,184.77 -112.70,182.84 -119.12,180.92 -127.08,177.01 -135.05,173.10 -144.58,169.64 -154.12,166.17 -159.78,163.89 -165.44,161.61 -168.19,160.89 -170.94,160.16 -172.52,160.34 -174.11,160.53 -174.67,160.42 -175.23,160.32 -175.72,160.04 -176.22,159.76 -176.60,159.34 -176.98,158.92 -177.20,158.40 -177.43,157.88 -177.48,157.32 -177.53,156.75 -177.39,156.20 -177.26,155.65 -176.96,155.17 -176.65,154.69 -176.21,154.33 -175.77,153.97 -175.24,153.77 -174.71,153.58 -174.14,153.56 -173.57,153.54 -173.03,153.70 -172.49,153.87 -172.02,154.20 -171.56,154.53 -171.23,154.99 -170.89,155.45 -170.72,155.99 -170.56,156.53 -170.57,157.10 -170.58,157.66 -170.77,158.20 -170.97,158.73 -171.32,159.18 -171.68,159.62 -172.15,159.93 -172.63,160.24 -173.18,160.38 -173.73,160.51 -174.30,160.47 -174.86,160.43 -175.38,160.21 -175.91,159.98 -176.33,159.61 -176.76,159.23 -177.04,158.74 -177.32,158.24 -177.43,157.69 -177.54,157.13 -177.46,156.57 -177.39,156.00 -177.14,155.49 -176.89,154.98 -176.49,154.58 -176.09,154.18 -175.58,153.92 -175.07,153.67 -174.51,153.59 -173.95,153.51 -173.95,153.51 -173.95,153.51 -171.45,153.79 -168.94,154.06 -166.16,155.23 -163.37,156.40 -157.78,158.59 -152.18,160.77 -142.33,164.27 -132.47,167.77 -124.89,171.39 -117.32,175.02 -111.96,176.65 -106.60,178.29 -103.43,178.20 -100.25,178.12 -94.54,177.51 -88.82,176.91 -81.47,175.56 -74.12,174.21 -69.71,172.80 -65.31,171.38 -57.75,168.14 -50.20,164.90 -48.05,162.28 -45.90,159.66 -44.64,157.27 -43.39,154.89 -41.73,149.87 -40.08,144.85 -39.31,141.42 -38.55,138.00 -37.10,130.86 -35.65,123.71 -34.86,119.33 -34.07,114.95 -33.02,107.35 -31.97,99.75 -31.76,96.45 -31.55,93.16 -31.46,87.14 -31.37,81.12 -31.04,74.76 -30.72,68.39 -29.83,64.84 -28.93,61.29 -27.87,54.63 -26.80,47.96 -26.43,45.14 -26.06,42.32 -25.67,37.26 -25.28,32.19 -24.36,27.93 -23.43,23.66 -22.53,20.71 -21.63,17.76 -19.58,12.08 -17.53,6.41 -14.80,4.32 -12.07,2.23 -6.86,-0.52 -1.64,-3.29 -1.22,-3.44 -0.81,-3.59 -0.36,-3.63 0.07,-3.68 0.51,-3.62 0.95,-3.55 1.36,-3.39 1.77,-3.22 2.13,-2.96 2.49,-2.70 2.78,-2.37 3.07,-2.03 3.27,-1.63 3.47,-1.23 3.56,-0.80 3.66,-0.37 3.65,0.07 3.64,0.51 3.53,0.94 3.41,1.37 3.20,1.76 2.99,2.15 2.68,2.47 2.38,2.80 2.01,3.05 1.64,3.29 1.64,3.29 L 1.64,3.29 Z"></path></g><g transform="translate(559.5823148776117 110.75601452740904) rotate(0 -113.84328854942362 40.56589799663966)" stroke="none"><path fill="#d3d3d3" d="M 1.49,-4.48 Q 1.49,-4.48 2.82,-3.64 4.15,-2.81 5.71,-3.47 7.27,-4.13 7.82,-3.87 8.36,-3.61 8.83,-3.22 9.30,-2.84 9.67,-2.36 10.03,-1.87 10.27,-1.31 10.51,-0.75 10.61,-0.16 10.70,0.43 10.65,1.04 10.61,1.64 10.41,2.22 10.22,2.79 9.90,3.31 9.57,3.82 9.14,4.24 8.70,4.66 8.17,4.96 7.65,5.26 7.06,5.43 6.48,5.60 5.88,5.63 5.27,5.65 4.68,5.53 4.08,5.41 0.20,2.72 -3.67,0.03 -6.11,-0.40 -8.55,-0.85 -11.18,-0.97 -13.80,-1.09 -18.03,0.26 -22.27,1.62 -27.38,5.26 -32.49,8.90 -37.33,14.03 -42.17,19.16 -45.67,25.58 -49.17,32.01 -51.07,37.63 -52.98,43.26 -54.11,46.61 -55.24,49.97 -56.19,52.18 -57.14,54.38 -60.01,56.31 -62.89,58.25 -65.59,59.36 -68.29,60.46 -73.05,61.29 -77.81,62.12 -84.07,61.92 -90.33,61.72 -95.96,61.54 -101.59,61.36 -106.02,60.83 -110.44,60.30 -115.81,60.40 -121.17,60.51 -132.57,60.90 -143.97,61.28 -157.09,61.79 -170.21,62.30 -177.92,63.24 -185.64,64.18 -190.72,65.30 -195.80,66.42 -199.70,67.96 -203.60,69.50 -207.54,71.28 -211.48,73.06 -214.97,74.95 -218.46,76.85 -221.43,78.55 -224.40,80.24 -226.90,82.33 -229.40,84.42 -230.74,86.98 -232.08,89.54 -232.47,90.05 -232.86,90.55 -233.39,90.90 -233.92,91.25 -234.53,91.41 -235.14,91.58 -235.78,91.54 -236.41,91.50 -237.00,91.25 -237.59,91.01 -238.07,90.60 -238.55,90.18 -238.87,89.63 -239.19,89.09 -239.32,88.46 -239.45,87.84 -239.38,87.21 -239.30,86.58 -239.03,86.01 -238.76,85.43 -238.32,84.98 -237.88,84.52 -237.31,84.23 -236.75,83.94 -236.12,83.84 -235.49,83.74 -234.86,83.85 -234.24,83.96 -233.68,84.26 -233.12,84.57 -232.69,85.03 -232.26,85.50 -232.00,86.08 -231.74,86.66 -231.67,87.29 -231.61,87.92 -231.75,88.54 -231.90,89.16 -232.23,89.70 -232.56,90.24 -233.05,90.65 -233.54,91.05 -234.13,91.28 -234.73,91.51 -235.36,91.54 -235.99,91.57 -236.61,91.39 -237.22,91.22 -237.74,90.85 -238.26,90.49 -238.64,89.98 -239.02,89.47 -239.22,88.87 -239.41,88.27 -239.41,87.63 -239.40,86.99 -239.19,86.39 -238.98,85.79 -238.98,85.80 -238.98,85.80 -236.20,82.53 -233.42,79.27 -230.33,77.02 -227.25,74.78 -224.16,73.35 -221.08,71.93 -217.41,70.02 -213.74,68.11 -209.69,66.24 -205.63,64.38 -201.34,62.66 -197.05,60.95 -191.71,59.71 -186.37,58.48 -178.42,57.43 -170.47,56.37 -157.35,55.73 -144.22,55.09 -132.83,54.53 -121.43,53.97 -115.64,53.64 -109.86,53.30 -105.75,53.49 -101.64,53.68 -96.04,53.43 -90.45,53.18 -84.46,52.81 -78.46,52.44 -76.08,52.34 -73.70,52.24 -70.11,51.59 -66.53,50.94 -64.07,49.30 -61.61,47.65 -60.36,44.46 -59.11,41.28 -57.19,35.04 -55.26,28.81 -51.52,21.50 -47.77,14.19 -42.64,8.25 -37.51,2.30 -31.56,-2.40 -25.61,-7.11 -19.74,-9.46 -13.87,-11.82 -9.26,-11.58 -4.64,-11.33 -1.08,-9.65 2.48,-7.96 4.88,-6.04 7.27,-4.13 7.82,-3.87 8.36,-3.61 8.83,-3.22 9.30,-2.84 9.67,-2.36 10.03,-1.87 10.27,-1.31 10.51,-0.76 10.61,-0.16 10.70,0.43 10.65,1.04 10.61,1.64 10.41,2.22 10.22,2.79 9.90,3.30 9.57,3.82 9.14,4.24 8.70,4.66 8.17,4.96 7.65,5.26 7.07,5.43 6.48,5.60 5.88,5.63 5.27,5.65 4.68,5.53 4.08,5.41 4.47,5.62 4.86,5.82 1.68,5.15 -1.49,4.48 -2.01,4.23 -2.52,3.99 -2.96,3.63 -3.40,3.27 -3.74,2.81 -4.09,2.36 -4.31,1.83 -4.53,1.31 -4.62,0.75 -4.71,0.19 -4.67,-0.37 -4.62,-0.94 -4.44,-1.48 -4.26,-2.02 -3.96,-2.50 -3.65,-2.98 -3.24,-3.38 -2.83,-3.77 -2.34,-4.06 -1.85,-4.34 -1.30,-4.50 -0.75,-4.66 -0.18,-4.68 0.38,-4.70 0.93,-4.59 1.49,-4.48 1.49,-4.48 L 1.49,-4.48 Z"></path></g><g transform="translate(337.132303873484 191.88784749582032) rotate(0 -122.34901094014265 7.1957674141351475)" stroke="none"><path fill="#d3d3d3" d="M 0,5.06 Q 0,5.06 -3.00,5.03 -6.01,5.00 -9.18,4.95 -12.34,4.89 -15.84,4.44 -19.34,3.99 -22.40,3.98 -25.47,3.97 -28.39,5.13 -31.30,6.28 -35.37,7.62 -39.44,8.97 -41.96,9.94 -44.48,10.91 -49.83,12.32 -55.19,13.73 -59.58,14.30 -63.98,14.87 -78.80,14.99 -93.63,15.11 -110.43,14.33 -127.23,13.55 -140.83,12.03 -154.42,10.52 -162.43,9.46 -170.44,8.41 -175.03,7.55 -179.63,6.69 -185.06,5.15 -190.50,3.61 -193.13,3.21 -195.76,2.81 -200.35,1.31 -204.93,-0.19 -211.20,-1.57 -217.48,-2.94 -222.33,-3.54 -227.18,-4.14 -230.02,-4.18 -232.87,-4.21 -235.51,-3.00 -238.14,-1.78 -238.93,0.91 -239.71,3.61 -238.32,7.69 -236.93,11.77 -235.26,13.83 -233.58,15.89 -232.08,17.67 -230.58,19.44 -230.23,20.09 -229.88,20.75 -229.75,21.48 -229.63,22.22 -229.75,22.95 -229.86,23.68 -230.21,24.34 -230.55,25.00 -231.09,25.52 -231.63,26.03 -232.30,26.35 -232.97,26.66 -233.71,26.74 -234.45,26.83 -235.18,26.67 -235.90,26.52 -236.54,26.14 -237.18,25.76 -237.67,25.19 -238.15,24.63 -238.43,23.94 -238.71,23.25 -238.75,22.51 -238.79,21.77 -238.60,21.05 -238.40,20.33 -237.99,19.71 -237.58,19.10 -236.99,18.64 -236.40,18.19 -235.69,17.95 -234.99,17.71 -234.25,17.70 -233.50,17.70 -232.80,17.93 -232.09,18.17 -231.50,18.62 -230.90,19.06 -230.48,19.68 -230.06,20.29 -229.86,21.00 -229.66,21.72 -229.69,22.46 -229.73,23.21 -230.00,23.90 -230.28,24.59 -230.75,25.16 -231.23,25.73 -231.87,26.11 -232.50,26.50 -233.23,26.66 -233.95,26.83 -234.69,26.75 -235.43,26.67 -236.11,26.36 -236.78,26.06 -237.33,25.55 -237.87,25.04 -237.87,25.04 -237.87,25.04 -239.20,23.13 -240.52,21.23 -242.67,18.31 -244.82,15.39 -246.94,9.12 -249.05,2.85 -247.94,0.16 -246.83,-2.52 -245.14,-5.14 -243.45,-7.77 -240.62,-9.46 -237.79,-11.15 -235.05,-10.96 -232.32,-10.76 -229.42,-10.32 -226.52,-9.87 -221.39,-9.32 -216.26,-8.78 -209.68,-7.46 -203.09,-6.15 -198.67,-4.87 -194.24,-3.60 -191.61,-2.75 -188.98,-1.90 -183.79,-0.51 -178.61,0.86 -174.16,1.58 -169.70,2.29 -161.73,3.18 -153.75,4.06 -140.36,5.33 -126.97,6.60 -110.38,7.07 -93.79,7.54 -79.60,7.06 -65.42,6.58 -61.76,5.73 -58.09,4.89 -53.33,2.96 -48.58,1.04 -45.00,-0.51 -41.42,-2.07 -38.36,-2.89 -35.30,-3.71 -32.57,-4.73 -29.84,-5.75 -27.46,-6.07 -25.07,-6.39 -21.65,-5.95 -18.23,-5.50 -15.28,-5.20 -12.33,-4.89 -9.17,-4.95 -6.01,-5.00 -3.00,-5.03 0,-5.06 0.60,-4.99 1.21,-4.92 1.78,-4.70 2.35,-4.48 2.85,-4.14 3.36,-3.79 3.76,-3.33 4.17,-2.87 4.45,-2.33 4.73,-1.79 4.88,-1.20 5.03,-0.61 5.03,0.00 5.03,0.61 4.88,1.20 4.73,1.79 4.45,2.33 4.17,2.87 3.76,3.33 3.36,3.79 2.85,4.14 2.35,4.48 1.78,4.70 1.21,4.92 0.60,4.99 -0.00,5.06 -0.00,5.06 L 0,5.06 Z"></path></g><g transform="translate(112.0622350156604 211.51576354315017) rotate(0 146.5563710362441 90.28700506518803)" stroke="none"><path fill="#d3d3d3" d="M 3.47,2.43 Q 3.47,2.43 0.66,6.06 -2.13,9.69 -3.97,13.54 -5.81,17.40 -6.39,19.53 -6.97,21.66 -8.58,25.87 -10.19,30.08 -11.24,35.40 -12.29,40.72 -13.05,44.31 -13.82,47.91 -13.93,51.29 -14.05,54.67 -11.53,56.94 -9.01,59.21 -6.36,60.03 -3.70,60.85 -1.06,61.24 1.58,61.63 4.10,61.68 6.62,61.73 8.72,61.07 10.82,60.42 13.89,60.05 16.97,59.68 21.53,59.30 26.09,58.92 28.75,58.89 31.40,58.85 35.17,59.04 38.94,59.23 44.31,59.52 49.68,59.81 55.36,61.20 61.04,62.59 63.95,62.97 66.87,63.35 70.02,64.32 73.17,65.29 76.62,67.45 80.08,69.60 84.14,73.39 88.21,77.18 91.78,81.11 95.35,85.04 98.34,88.63 101.32,92.22 103.76,94.73 106.19,97.25 108.70,99.84 111.22,102.42 112.85,104.81 114.48,107.20 115.58,109.75 116.68,112.29 117.33,114.89 117.98,117.49 118.50,120.74 119.02,123.99 120.19,126.59 121.35,129.18 123.30,131.05 125.24,132.91 128.29,134.26 131.33,135.61 134.29,137.23 137.24,138.85 144.54,142.86 151.85,146.86 154.80,148.62 157.75,150.37 165.30,153.43 172.85,156.49 177.62,158.31 182.38,160.12 200.76,163.92 219.13,167.72 231.48,169.78 243.83,171.84 262.90,173.49 281.98,175.14 290.51,175.88 299.04,176.61 305.34,177.16 311.65,177.70 312.10,177.81 312.56,177.92 312.95,178.17 313.34,178.42 313.63,178.78 313.93,179.15 314.09,179.58 314.25,180.02 314.26,180.48 314.28,180.95 314.14,181.39 314.01,181.84 313.74,182.22 313.46,182.60 313.09,182.87 312.71,183.14 312.27,183.28 311.82,183.42 311.36,183.41 310.89,183.40 310.45,183.24 310.02,183.08 309.65,182.79 309.29,182.50 309.04,182.10 308.79,181.71 308.67,181.26 308.56,180.81 308.60,180.35 308.63,179.88 308.82,179.45 309.00,179.03 309.31,178.68 309.62,178.33 310.02,178.10 310.43,177.87 310.88,177.78 311.34,177.69 311.80,177.76 312.26,177.82 312.68,178.02 313.10,178.23 313.43,178.56 313.76,178.89 313.97,179.30 314.17,179.72 314.24,180.18 314.30,180.64 314.21,181.10 314.13,181.55 313.90,181.96 313.67,182.37 313.33,182.68 312.98,182.99 312.55,183.17 312.13,183.36 311.66,183.40 311.20,183.44 311.20,183.44 311.20,183.44 304.89,182.99 298.57,182.54 290.02,181.93 281.48,181.32 262.14,179.81 242.81,178.31 230.29,176.47 217.76,174.62 198.87,171.02 179.97,167.42 174.93,165.97 169.89,164.53 161.44,161.69 152.99,158.85 150.18,157.36 147.36,155.86 139.87,152.53 132.38,149.20 128.94,147.09 125.50,144.98 122.34,143.28 119.18,141.57 117.59,139.80 116.00,138.03 113.40,134.23 110.80,130.44 110.21,128.05 109.62,125.65 108.79,120.74 107.96,115.83 107.01,113.36 106.06,110.89 105.14,108.73 104.23,106.57 102.75,104.19 101.28,101.80 98.89,99.11 96.50,96.42 93.46,93.09 90.42,89.75 86.88,86.24 83.34,82.73 79.54,79.63 75.74,76.52 73.07,74.86 70.40,73.19 67.99,72.25 65.58,71.31 62.50,70.73 59.42,70.15 54.53,69.29 49.65,68.43 44.31,68.73 38.97,69.04 35.26,69.25 31.54,69.47 28.98,69.50 26.41,69.53 22.41,69.68 18.41,69.84 14.45,70.37 10.49,70.90 8.19,71.18 5.90,71.45 2.99,70.88 0.08,70.31 -3.22,69.67 -6.53,69.04 -10.81,67.44 -15.08,65.85 -17.44,63.31 -19.80,60.78 -20.98,57.79 -22.15,54.79 -21.30,50.59 -20.44,46.40 -19.60,42.98 -18.76,39.56 -17.82,33.69 -16.87,27.82 -15.55,23.41 -14.22,19.01 -13.21,16.79 -12.20,14.57 -10.30,9.96 -8.39,5.35 -5.93,1.45 -3.47,-2.43 -3.13,-2.81 -2.79,-3.19 -2.36,-3.47 -1.94,-3.76 -1.46,-3.94 -0.98,-4.12 -0.47,-4.18 0.02,-4.24 0.53,-4.17 1.04,-4.11 1.51,-3.92 1.99,-3.74 2.41,-3.44 2.83,-3.15 3.16,-2.77 3.50,-2.38 3.74,-1.93 3.97,-1.47 4.09,-0.98 4.21,-0.48 4.20,0.02 4.20,0.53 4.08,1.03 3.95,1.52 3.71,1.98 3.47,2.43 3.47,2.43 L 3.47,2.43 Z"></path></g><g transform="translate(185.34140037478068 343.6749795310595) rotate(0 -87.67070018739034 37.2927114112519)" stroke="none"><path fill="#d3d3d3" d="M -3.81,0 Q -3.81,0 -3.98,-1.87 -4.15,-3.74 -6.50,-7.47 -8.84,-11.21 -11.32,-15.42 -13.79,-19.62 -15.91,-22.78 -18.03,-25.93 -21.94,-29.31 -25.85,-32.68 -29.24,-34.77 -32.63,-36.85 -38.91,-37.69 -45.20,-38.54 -61.08,-38.63 -76.96,-38.73 -97.58,-36.93 -118.21,-35.12 -131.67,-32.57 -145.14,-30.01 -151.87,-23.61 -158.60,-17.21 -162.54,-7.29 -166.49,2.62 -167.09,14.13 -167.70,25.64 -164.65,38.23 -161.60,50.82 -155.52,62.04 -149.45,73.26 -140.94,83.60 -132.44,93.93 -124.12,100.07 -115.81,106.20 -107.69,108.72 -99.56,111.23 -88.54,110.08 -77.52,108.93 -66.97,104.42 -56.42,99.90 -48.94,95.40 -41.46,90.90 -36.93,86.49 -32.41,82.09 -29.75,78.77 -27.10,75.45 -24.97,70.16 -22.85,64.86 -20.80,57.00 -18.74,49.14 -17.45,44.93 -16.17,40.71 -14.87,36.67 -13.58,32.62 -11.17,22.73 -8.77,12.84 -8.52,0.23 -8.27,-12.38 -9.27,-18.38 -10.26,-24.38 -11.25,-26.79 -12.24,-29.20 -13.05,-31.09 -13.86,-32.98 -13.93,-33.55 -14.01,-34.12 -13.90,-34.68 -13.79,-35.25 -13.51,-35.74 -13.22,-36.24 -12.79,-36.63 -12.37,-37.01 -11.84,-37.23 -11.31,-37.46 -10.74,-37.50 -10.17,-37.55 -9.61,-37.41 -9.05,-37.27 -8.57,-36.96 -8.09,-36.65 -7.73,-36.20 -7.37,-35.75 -7.18,-35.21 -6.98,-34.67 -6.97,-34.10 -6.95,-33.53 -7.12,-32.98 -7.29,-32.43 -7.63,-31.97 -7.96,-31.50 -8.43,-31.17 -8.90,-30.83 -9.45,-30.67 -10.00,-30.50 -10.57,-30.52 -11.14,-30.53 -11.68,-30.73 -12.22,-30.93 -12.66,-31.29 -13.11,-31.65 -13.42,-32.14 -13.73,-32.62 -13.86,-33.18 -14.00,-33.74 -13.95,-34.31 -13.90,-34.88 -13.67,-35.41 -13.45,-35.93 -13.06,-36.36 -12.68,-36.78 -12.18,-37.07 -11.68,-37.35 -11.11,-37.45 -10.55,-37.56 -9.98,-37.48 -9.41,-37.40 -8.90,-37.14 -8.39,-36.89 -7.98,-36.48 -7.58,-36.07 -7.32,-35.56 -7.07,-35.05 -7.07,-35.05 -7.07,-35.05 -6.69,-33.02 -6.31,-31.00 -5.69,-28.11 -5.07,-25.22 -4.04,-18.75 -3.01,-12.28 -3.33,0.88 -3.64,14.06 -6.10,24.15 -8.55,34.23 -9.85,38.24 -11.14,42.25 -12.40,46.36 -13.66,50.48 -15.82,58.67 -17.99,66.86 -20.48,72.77 -22.97,78.69 -25.86,82.28 -28.75,85.87 -33.74,90.63 -38.72,95.40 -46.54,100.08 -54.36,104.76 -65.65,109.47 -76.94,114.17 -88.97,115.23 -101.00,116.30 -109.94,113.40 -118.89,110.51 -127.71,103.92 -136.53,97.34 -145.34,86.58 -154.15,75.82 -160.49,63.97 -166.83,52.12 -169.98,38.76 -173.13,25.40 -172.38,13.01 -171.63,0.63 -167.09,-10.26 -162.55,-21.15 -154.61,-28.31 -146.67,-35.47 -132.71,-38.27 -118.75,-41.07 -97.85,-43.01 -76.95,-44.96 -60.64,-45.02 -44.33,-45.08 -36.82,-44.08 -29.31,-43.08 -25.04,-40.82 -20.77,-38.56 -17.79,-36.03 -14.81,-33.50 -13.44,-31.79 -12.08,-30.08 -9.79,-26.88 -7.50,-23.67 -4.91,-20.00 -2.32,-16.33 0.59,-12.50 3.51,-8.67 3.83,-6.22 4.15,-3.77 3.98,-1.88 3.81,0 3.75,0.45 3.70,0.91 3.53,1.34 3.37,1.77 3.11,2.15 2.85,2.52 2.51,2.83 2.16,3.13 1.75,3.35 1.35,3.56 0.90,3.67 0.45,3.78 -0.00,3.78 -0.45,3.78 -0.90,3.67 -1.35,3.56 -1.75,3.35 -2.16,3.13 -2.51,2.83 -2.85,2.52 -3.11,2.15 -3.37,1.77 -3.53,1.34 -3.70,0.91 -3.75,0.45 -3.81,-0.00 -3.81,-0.00 L -3.81,0 Z"></path></g><g transform="translate(210.20192617770562 291.3337961212492) rotate(0 -18.317887120481885 11.777134169770761)" stroke="none"><path fill="#d3d3d3" d="M 0.96,4.32 Q 0.96,4.32 -2.43,5.02 -5.83,5.73 -8.26,6.47 -10.70,7.22 -13.63,8.71 -16.56,10.21 -19.97,13.15 -23.37,16.09 -25.74,18.08 -28.11,20.08 -29.52,21.84 -30.92,23.60 -32.11,25.10 -33.29,26.60 -33.86,27.06 -34.44,27.51 -35.13,27.76 -35.82,28.00 -36.55,28.02 -37.28,28.03 -37.98,27.81 -38.68,27.59 -39.27,27.16 -39.86,26.72 -40.28,26.12 -40.71,25.53 -40.91,24.82 -41.12,24.12 -41.10,23.39 -41.07,22.66 -40.81,21.97 -40.55,21.29 -40.09,20.72 -39.63,20.15 -39.00,19.76 -38.38,19.37 -37.67,19.20 -36.96,19.03 -36.23,19.10 -35.50,19.16 -34.83,19.46 -34.16,19.76 -33.62,20.25 -33.08,20.74 -32.72,21.38 -32.37,22.03 -32.23,22.75 -32.10,23.47 -32.21,24.19 -32.31,24.92 -32.64,25.57 -32.98,26.22 -33.50,26.74 -34.02,27.25 -34.68,27.57 -35.34,27.89 -36.07,27.98 -36.79,28.07 -37.51,27.93 -38.23,27.79 -38.86,27.42 -39.50,27.05 -39.98,26.50 -40.47,25.95 -40.75,25.28 -41.03,24.60 -41.09,23.87 -41.14,23.14 -40.96,22.43 -40.77,21.72 -40.37,21.11 -39.97,20.50 -39.97,20.50 -39.98,20.50 -38.59,19.18 -37.20,17.87 -35.14,15.83 -33.07,13.79 -30.81,12.14 -28.54,10.49 -24.59,6.64 -20.63,2.78 -16.87,0.67 -13.10,-1.43 -10.40,-2.07 -7.71,-2.72 -4.33,-3.52 -0.96,-4.32 -0.42,-4.37 0.10,-4.42 0.63,-4.35 1.15,-4.27 1.65,-4.07 2.14,-3.87 2.58,-3.55 3.01,-3.24 3.35,-2.83 3.70,-2.43 3.93,-1.95 4.17,-1.47 4.29,-0.95 4.40,-0.43 4.39,0.10 4.38,0.63 4.24,1.15 4.10,1.66 3.84,2.13 3.58,2.59 3.22,2.99 2.85,3.38 2.41,3.67 1.96,3.96 1.46,4.14 0.96,4.32 0.96,4.32 L 0.96,4.32 Z"></path></g><g transform="translate(628.9312455556601 130.38393057473883) rotate(0 1.3100289268479202 0)" stroke="none"><path fill="#d3d3d3" d="M 0,-4.56 Q 0,-4.56 1.31,-4.68 2.62,-4.80 3.38,-4.68 4.15,-4.55 4.84,-4.19 5.52,-3.82 6.06,-3.26 6.59,-2.69 6.92,-1.99 7.25,-1.28 7.33,-0.51 7.42,0.26 7.25,1.02 7.08,1.77 6.68,2.44 6.28,3.11 5.69,3.61 5.09,4.11 4.37,4.40 3.65,4.69 2.87,4.73 2.09,4.77 1.35,4.57 0.60,4.36 -0.04,3.92 -0.68,3.49 -1.15,2.87 -1.62,2.25 -1.87,1.51 -2.12,0.77 -2.12,-0.00 -2.12,-0.77 -1.87,-1.51 -1.62,-2.25 -1.15,-2.87 -0.68,-3.49 -0.04,-3.92 0.60,-4.36 1.35,-4.57 2.10,-4.77 2.87,-4.73 3.65,-4.69 4.37,-4.40 5.09,-4.11 5.69,-3.61 6.28,-3.11 6.68,-2.44 7.08,-1.77 7.25,-1.01 7.42,-0.25 7.33,0.51 7.25,1.28 6.92,1.99 6.59,2.69 6.06,3.26 5.52,3.82 4.84,4.19 4.15,4.55 3.38,4.68 2.61,4.80 2.61,4.80 2.62,4.80 1.31,4.68 0,4.56 -0.54,4.50 -1.09,4.43 -1.60,4.24 -2.12,4.04 -2.57,3.73 -3.02,3.41 -3.39,3.00 -3.75,2.59 -4.01,2.10 -4.27,1.61 -4.40,1.08 -4.53,0.55 -4.53,-0.00 -4.53,-0.55 -4.40,-1.08 -4.27,-1.62 -4.01,-2.10 -3.75,-2.59 -3.39,-3.00 -3.02,-3.41 -2.57,-3.73 -2.12,-4.04 -1.60,-4.24 -1.09,-4.43 -0.54,-4.50 0.00,-4.56 0.00,-4.56 L 0,-4.56 Z"></path></g><g transform="translate(622.3885698980846 130.38393057473883) rotate(0 -90.94200104104596 -11.120215487048625)" stroke="none"><path fill="#d3d3d3" d="M -3.05,1.83 Q -3.05,1.83 -5.20,-1.99 -7.35,-5.82 -8.48,-7.74 -9.61,-9.66 -12.97,-11.51 -16.32,-13.36 -23.52,-16.76 -30.72,-20.16 -35.79,-22.52 -40.86,-24.88 -49.38,-28.56 -57.91,-32.24 -63.71,-34.57 -69.52,-36.91 -75.32,-37.09 -81.11,-37.27 -96.11,-37.03 -111.12,-36.79 -119.41,-36.71 -127.71,-36.62 -138.98,-35.48 -150.25,-34.34 -158.39,-30.26 -166.53,-26.18 -170.14,-21.36 -173.75,-16.54 -175.27,-11.73 -176.79,-6.92 -176.71,-0.96 -176.63,4.98 -176.25,9.07 -175.87,13.16 -174.78,15.58 -173.69,18.00 -173.64,18.40 -173.59,18.81 -173.64,19.22 -173.68,19.62 -173.83,20.01 -173.97,20.39 -174.20,20.73 -174.44,21.07 -174.74,21.34 -175.05,21.61 -175.41,21.80 -175.77,21.99 -176.17,22.09 -176.57,22.19 -176.98,22.19 -177.39,22.19 -177.78,22.10 -178.18,22.00 -178.55,21.81 -178.91,21.62 -179.22,21.35 -179.52,21.08 -179.76,20.74 -179.99,20.41 -180.14,20.02 -180.28,19.64 -179.43,17.56 -178.59,15.48 -176.89,12.75 -175.20,10.02 -171.21,4.75 -167.21,-0.50 -164.16,-4.51 -161.11,-8.53 -160.72,-8.92 -160.32,-9.31 -159.83,-9.56 -159.33,-9.81 -158.79,-9.88 -158.24,-9.96 -157.69,-9.85 -157.15,-9.75 -156.67,-9.48 -156.19,-9.21 -155.82,-8.80 -155.45,-8.38 -155.23,-7.88 -155.01,-7.37 -154.96,-6.82 -154.92,-6.27 -155.05,-5.73 -155.18,-5.19 -155.48,-4.72 -155.78,-4.26 -156.21,-3.91 -156.64,-3.56 -157.16,-3.37 -157.68,-3.18 -158.23,-3.16 -158.78,-3.15 -159.31,-3.31 -159.84,-3.47 -160.29,-3.79 -160.74,-4.12 -161.06,-4.56 -161.39,-5.01 -161.55,-5.54 -161.71,-6.07 -161.70,-6.62 -161.68,-7.18 -161.49,-7.70 -161.30,-8.22 -160.96,-8.65 -160.61,-9.08 -160.15,-9.38 -159.68,-9.68 -159.14,-9.81 -158.61,-9.95 -158.06,-9.90 -157.50,-9.86 -157.00,-9.64 -156.49,-9.42 -156.07,-9.05 -155.66,-8.68 -155.39,-8.20 -155.12,-7.72 -155.01,-7.18 -154.91,-6.63 -154.98,-6.09 -155.05,-5.54 -155.30,-5.04 -155.54,-4.55 -155.54,-4.55 -155.54,-4.55 -158.36,-0.36 -161.17,3.81 -165.12,9.64 -169.06,15.47 -171.38,16.74 -173.69,18.00 -173.64,18.40 -173.59,18.81 -173.64,19.22 -173.68,19.62 -173.83,20.01 -173.97,20.39 -174.20,20.73 -174.44,21.07 -174.74,21.34 -175.05,21.61 -175.41,21.80 -175.77,21.99 -176.17,22.09 -176.57,22.19 -176.98,22.19 -177.39,22.20 -177.78,22.10 -178.18,22.00 -178.55,21.81 -178.91,21.62 -179.22,21.35 -179.52,21.08 -179.76,20.74 -179.99,20.41 -180.14,20.03 -180.28,19.64 -180.40,19.08 -180.52,18.51 -180.85,16.08 -181.18,13.65 -181.57,9.33 -181.96,5.00 -181.93,-1.74 -181.89,-8.50 -179.98,-14.13 -178.06,-19.75 -173.60,-25.33 -169.13,-30.91 -160.04,-35.35 -150.94,-39.80 -139.37,-41.02 -127.79,-42.24 -119.51,-42.39 -111.22,-42.55 -96.07,-42.88 -80.91,-43.21 -74.16,-42.97 -67.40,-42.72 -61.40,-40.51 -55.39,-38.30 -46.73,-34.82 -38.08,-31.35 -32.82,-29.27 -27.57,-27.19 -18.15,-22.55 -8.74,-17.91 -5.99,-15.59 -3.24,-13.27 -2.45,-11.25 -1.67,-9.22 0.69,-5.53 3.05,-1.83 3.23,-1.44 3.40,-1.04 3.48,-0.62 3.56,-0.20 3.53,0.22 3.50,0.65 3.37,1.06 3.24,1.47 3.02,1.84 2.79,2.20 2.49,2.51 2.18,2.81 1.82,3.03 1.45,3.25 1.04,3.38 0.63,3.50 0.20,3.53 -0.22,3.55 -0.65,3.47 -1.07,3.40 -1.46,3.22 -1.85,3.04 -2.19,2.77 -2.53,2.51 -2.79,2.17 -3.05,1.83 -3.05,1.83 L -3.05,1.83 Z"></path></g><g transform="translate(655.101800285433 118.60868213670022) rotate(0 34.023333264460305 -54.30434106835011)" stroke="none"><path fill="#d3d3d3" d="M -2.43,2.91 Q -2.43,2.91 -4.75,1.11 -7.07,-0.68 -9.94,-3.52 -12.81,-6.35 -14.33,-7.96 -15.86,-9.57 -17.68,-12.73 -19.51,-15.90 -20.74,-17.92 -21.97,-19.94 -22.80,-29.10 -23.63,-38.27 -23.81,-43.80 -23.99,-49.34 -22.10,-57.74 -20.20,-66.15 -19.01,-70.08 -17.82,-74.02 -13.54,-78.79 -9.26,-83.56 1.84,-89.37 12.95,-95.18 27.16,-99.48 41.36,-103.78 52.72,-105.96 64.08,-108.15 70.37,-107.56 76.66,-106.96 80.35,-105.61 84.04,-104.26 86.06,-103.42 88.09,-102.58 89.89,-100.99 91.69,-99.41 92.03,-98.91 92.37,-98.40 92.53,-97.82 92.70,-97.24 92.66,-96.63 92.63,-96.03 92.41,-95.47 92.19,-94.90 91.80,-94.44 91.41,-93.98 90.89,-93.67 90.37,-93.35 89.78,-93.22 89.19,-93.09 88.59,-93.15 87.98,-93.22 87.43,-93.47 86.88,-93.72 86.44,-94.14 86.00,-94.55 85.72,-95.09 85.43,-95.62 85.33,-96.22 85.23,-96.82 85.33,-97.41 85.43,-98.01 85.71,-98.55 85.99,-99.08 86.43,-99.50 86.87,-99.92 87.42,-100.17 87.97,-100.43 88.57,-100.50 89.17,-100.56 89.76,-100.43 90.35,-100.30 90.87,-99.99 91.39,-99.68 91.78,-99.22 92.18,-98.76 92.40,-98.20 92.63,-97.64 92.66,-97.03 92.70,-96.43 92.54,-95.85 92.38,-95.26 92.04,-94.76 91.70,-94.26 91.22,-93.89 90.74,-93.52 90.16,-93.33 89.59,-93.13 88.98,-93.13 88.38,-93.13 87.80,-93.32 87.23,-93.51 86.75,-93.88 86.26,-94.24 86.27,-94.24 86.27,-94.24 83.97,-96.47 81.68,-98.69 78.86,-100.09 76.04,-101.48 70.57,-102.05 65.09,-102.62 54.06,-100.44 43.04,-98.26 29.37,-94.07 15.69,-89.88 5.46,-84.58 -4.75,-79.27 -8.19,-75.58 -11.63,-71.89 -12.66,-68.31 -13.69,-64.73 -15.25,-57.23 -16.82,-49.73 -16.29,-44.39 -15.77,-39.05 -14.93,-31.47 -14.10,-23.90 -13.18,-21.95 -12.26,-20.00 -9.91,-15.94 -7.57,-11.89 -4.76,-9.36 -1.94,-6.83 0.24,-4.87 2.43,-2.91 2.74,-2.58 3.06,-2.25 3.28,-1.85 3.51,-1.45 3.63,-1.01 3.75,-0.57 3.77,-0.11 3.78,0.34 3.68,0.79 3.59,1.24 3.39,1.65 3.19,2.06 2.89,2.41 2.60,2.76 2.23,3.03 1.86,3.31 1.44,3.48 1.01,3.66 0.56,3.72 0.11,3.79 -0.34,3.75 -0.79,3.71 -1.23,3.56 -1.66,3.41 -2.04,3.16 -2.43,2.91 -2.43,2.91 L -2.43,2.91 Z"></path></g><g transform="translate(665.5707912600881 185.34520881337704) rotate(0 54.95939250690607 81.78115326150689)" stroke="none"><path fill="#d3d3d3" d="M 3.10,-0.68 Q 3.10,-0.68 4.53,6.09 5.96,12.88 6.68,16.56 7.41,20.25 8.69,24.63 9.97,29.01 13.52,40.35 17.07,51.69 24.09,64.53 31.11,77.38 41.40,87.15 51.70,96.92 60.53,102.96 69.35,109.01 75.44,113.15 81.52,117.29 87.37,124.18 93.23,131.07 97.92,137.76 102.62,144.44 105.00,147.55 107.38,150.66 109.37,153.66 111.35,156.66 111.28,160.27 111.21,163.89 109.23,165.93 107.25,167.98 106.68,168.31 106.12,168.64 105.48,168.77 104.84,168.90 104.19,168.82 103.54,168.74 102.95,168.46 102.37,168.18 101.90,167.72 101.43,167.27 101.13,166.68 100.83,166.10 100.74,165.46 100.64,164.81 100.75,164.17 100.87,163.52 101.18,162.95 101.50,162.38 101.98,161.94 102.46,161.49 103.05,161.23 103.65,160.96 104.30,160.90 104.95,160.84 105.59,160.99 106.22,161.14 106.78,161.48 107.33,161.83 107.75,162.33 108.17,162.83 108.40,163.44 108.63,164.05 108.66,164.71 108.69,165.36 108.50,165.99 108.32,166.61 107.94,167.15 107.57,167.69 107.04,168.07 106.52,168.46 105.90,168.66 105.27,168.86 104.62,168.85 103.97,168.84 103.35,168.63 102.74,168.41 102.22,168.01 101.71,167.60 101.35,167.06 100.99,166.51 100.82,165.88 100.66,165.25 100.70,164.60 100.75,163.94 101.00,163.34 101.25,162.74 101.68,162.24 102.11,161.75 102.11,161.75 102.11,161.75 104.01,160.58 105.92,159.41 104.40,156.70 102.89,153.98 100.57,150.75 98.26,147.51 93.69,141.02 89.12,134.53 83.78,128.13 78.44,121.74 72.35,117.63 66.26,113.52 57.07,107.24 47.88,100.95 37.03,90.56 26.18,80.17 18.85,66.82 11.52,53.47 7.86,42.13 4.20,30.79 2.68,26.07 1.17,21.35 0.61,17.77 0.05,14.19 -1.52,7.44 -3.10,0.68 -3.13,0.30 -3.17,-0.07 -3.12,-0.45 -3.06,-0.83 -2.92,-1.18 -2.77,-1.54 -2.55,-1.85 -2.32,-2.16 -2.03,-2.40 -1.74,-2.65 -1.40,-2.82 -1.05,-2.99 -0.68,-3.07 -0.31,-3.16 0.07,-3.15 0.45,-3.14 0.82,-3.04 1.19,-2.94 1.52,-2.75 1.86,-2.57 2.14,-2.31 2.42,-2.05 2.63,-1.73 2.84,-1.41 2.97,-1.05 3.10,-0.68 3.10,-0.68 L 3.10,-0.68 Z"></path></g><g transform="translate(322.73692363148547 326.6633128988293) rotate(0 68.69779860348447 6.544561389307415)" stroke="none"><path fill="#d3d3d3" d="M -1.40,-3.27 Q -1.40,-3.27 1.17,-4.52 3.75,-5.77 8.53,-8.28 13.31,-10.79 18.68,-12.70 24.04,-14.62 27.05,-15.61 30.06,-16.61 34.37,-17.60 38.69,-18.58 41.34,-19.26 43.99,-19.93 51.46,-19.64 58.93,-19.35 63.06,-19.20 67.20,-19.04 74.58,-18.93 81.97,-18.81 86.05,-18.42 90.14,-18.03 96.80,-14.64 103.46,-11.26 107.34,-8.64 111.22,-6.03 117.63,2.11 124.03,10.25 127.01,14.38 129.99,18.51 132.67,21.19 135.35,23.88 137.54,25.86 139.72,27.84 140.02,28.27 140.32,28.70 140.47,29.20 140.61,29.71 140.59,30.23 140.57,30.76 140.38,31.25 140.19,31.74 139.85,32.14 139.52,32.54 139.07,32.82 138.62,33.09 138.11,33.21 137.60,33.33 137.08,33.28 136.55,33.23 136.08,33.01 135.60,32.80 135.21,32.44 134.83,32.08 134.58,31.62 134.33,31.16 134.24,30.64 134.15,30.13 134.23,29.61 134.30,29.09 134.55,28.62 134.79,28.15 135.16,27.79 135.54,27.42 136.02,27.20 136.49,26.97 137.01,26.91 137.53,26.85 138.05,26.96 138.56,27.07 139.01,27.33 139.47,27.60 139.81,27.99 140.15,28.39 140.35,28.88 140.55,29.36 140.59,29.89 140.62,30.41 140.48,30.92 140.35,31.42 140.06,31.86 139.77,32.30 139.35,32.62 138.94,32.94 138.44,33.12 137.95,33.29 137.42,33.29 136.90,33.30 136.40,33.14 135.90,32.97 135.48,32.66 135.06,32.35 135.06,32.35 135.06,32.35 133.15,30.10 131.25,27.84 128.39,24.80 125.54,21.77 122.57,17.74 119.60,13.71 113.79,6.21 107.98,-1.29 104.36,-3.63 100.73,-5.97 95.05,-8.93 89.37,-11.90 85.65,-12.28 81.94,-12.67 74.51,-12.62 67.08,-12.57 62.92,-12.57 58.76,-12.57 52.02,-12.63 45.27,-12.70 42.81,-12.44 40.34,-12.18 36.16,-10.96 31.98,-9.75 29.16,-9.12 26.34,-8.49 21.54,-6.58 16.73,-4.66 11.75,-1.69 6.77,1.26 4.09,2.27 1.40,3.27 0.99,3.39 0.57,3.51 0.14,3.53 -0.28,3.55 -0.70,3.46 -1.12,3.38 -1.51,3.20 -1.89,3.01 -2.23,2.74 -2.56,2.47 -2.82,2.13 -3.08,1.78 -3.25,1.39 -3.42,0.99 -3.49,0.57 -3.56,0.14 -3.52,-0.27 -3.49,-0.70 -3.35,-1.11 -3.22,-1.52 -2.99,-1.88 -2.76,-2.24 -2.45,-2.54 -2.14,-2.84 -1.77,-3.06 -1.40,-3.27 -1.40,-3.27 L -1.40,-3.27 Z"></path></g><g transform="translate(321.4268947046375 394.70990547748613) rotate(0 -13.08527736488655 37.292674436119846)" stroke="none"><path fill="#d3d3d3" d="M 3.23,2.26 Q 3.23,2.26 0.46,5.91 -2.30,9.56 -6.36,19.77 -10.41,29.98 -14.09,42.24 -17.78,54.49 -19.38,60.10 -20.99,65.71 -21.44,68.48 -21.90,71.25 -22.19,73.35 -22.48,75.45 -22.72,76.02 -22.95,76.58 -23.36,77.04 -23.76,77.50 -24.29,77.81 -24.82,78.12 -25.42,78.24 -26.02,78.36 -26.63,78.28 -27.23,78.21 -27.79,77.94 -28.34,77.68 -28.77,77.25 -29.21,76.82 -29.49,76.28 -29.77,75.73 -29.86,75.13 -29.95,74.52 -29.84,73.92 -29.73,73.32 -29.44,72.78 -29.14,72.24 -28.69,71.83 -28.24,71.42 -27.68,71.17 -27.12,70.92 -26.51,70.86 -25.90,70.81 -25.31,70.95 -24.71,71.09 -24.19,71.41 -23.67,71.74 -23.28,72.21 -22.89,72.68 -22.68,73.25 -22.46,73.82 -22.44,74.44 -22.41,75.05 -22.58,75.63 -22.76,76.22 -23.11,76.72 -23.46,77.22 -23.95,77.59 -24.45,77.95 -25.03,78.14 -25.61,78.32 -26.22,78.31 -26.84,78.30 -27.41,78.10 -27.99,77.89 -28.47,77.52 -28.95,77.14 -29.29,76.63 -29.62,76.11 -29.78,75.52 -29.93,74.93 -29.89,74.32 -29.85,73.71 -29.85,73.71 -29.85,73.71 -29.17,71.70 -28.49,69.69 -27.63,66.91 -26.78,64.12 -25.29,58.42 -23.81,52.73 -20.22,40.15 -16.63,27.57 -12.42,16.52 -8.22,5.48 -5.73,1.60 -3.23,-2.26 -2.91,-2.62 -2.60,-2.97 -2.20,-3.24 -1.81,-3.51 -1.36,-3.67 -0.92,-3.84 -0.44,-3.89 0.02,-3.95 0.49,-3.89 0.97,-3.82 1.41,-3.65 1.85,-3.48 2.24,-3.21 2.63,-2.94 2.95,-2.58 3.26,-2.22 3.48,-1.79 3.70,-1.37 3.81,-0.91 3.92,-0.45 3.92,0.02 3.91,0.50 3.80,0.96 3.68,1.42 3.46,1.84 3.23,2.26 3.23,2.26 L 3.23,2.26 Z"></path></g><g transform="translate(371.151791724216 394.70990547748613) rotate(0 22.899253876117495 33.366359119040276)" stroke="none"><path fill="#d3d3d3" d="M 2.77,-2.34 Q 2.77,-2.34 6.80,2.63 10.84,7.60 14.08,12.07 17.33,16.55 21.36,23.05 25.39,29.55 27.50,32.55 29.62,35.55 33.03,40.23 36.45,44.90 39.11,49.29 41.77,53.68 43.72,57.01 45.67,60.34 47.22,62.70 48.77,65.05 48.96,65.57 49.15,66.09 49.16,66.64 49.18,67.19 49.01,67.72 48.85,68.25 48.53,68.70 48.21,69.14 47.76,69.47 47.31,69.79 46.78,69.95 46.25,70.11 45.70,70.10 45.15,70.08 44.63,69.89 44.11,69.70 43.68,69.35 43.25,69.00 42.95,68.54 42.66,68.07 42.52,67.54 42.39,67.00 42.44,66.45 42.48,65.90 42.70,65.39 42.92,64.89 43.29,64.47 43.66,64.06 44.14,63.79 44.62,63.52 45.16,63.42 45.71,63.31 46.25,63.39 46.80,63.46 47.29,63.71 47.79,63.96 48.18,64.35 48.57,64.74 48.81,65.23 49.06,65.73 49.13,66.28 49.21,66.82 49.10,67.37 49.00,67.91 48.72,68.39 48.45,68.87 48.04,69.24 47.63,69.61 47.12,69.82 46.61,70.04 46.06,70.09 45.51,70.13 44.98,70.00 44.44,69.86 43.97,69.56 43.51,69.27 43.16,68.84 42.82,68.40 42.82,68.40 42.82,68.40 41.61,65.86 40.39,63.32 38.61,60.03 36.83,56.73 34.24,52.62 31.64,48.51 28.02,43.79 24.40,39.08 22.35,35.93 20.29,32.77 16.28,26.56 12.27,20.35 8.99,16.15 5.71,11.95 1.46,7.14 -2.77,2.34 -3.01,1.98 -3.25,1.61 -3.39,1.20 -3.54,0.78 -3.58,0.35 -3.63,-0.08 -3.56,-0.51 -3.50,-0.94 -3.34,-1.35 -3.17,-1.76 -2.92,-2.11 -2.66,-2.46 -2.32,-2.75 -1.99,-3.03 -1.60,-3.23 -1.21,-3.42 -0.78,-3.52 -0.35,-3.61 0.08,-3.60 0.51,-3.59 0.94,-3.48 1.36,-3.36 1.74,-3.15 2.13,-2.94 2.45,-2.64 2.77,-2.34 2.77,-2.34 L 2.77,-2.34 Z"></path></g><g transform="translate(562.1985273175794 177.4925042289538) rotate(0 -88.98072911423833 27.478734900020953)" stroke="none"><path fill="#d3d3d3" d="M 2.45,2.33 Q 2.45,2.33 -4.38,9.40 -11.23,16.48 -15.68,20.98 -20.13,25.48 -25.19,29.39 -30.25,33.30 -32.69,35.15 -35.13,37.00 -41.02,39.26 -46.91,41.53 -51.28,42.81 -55.65,44.10 -58.96,45.15 -62.27,46.21 -74.32,48.81 -86.36,51.40 -98.69,53.24 -111.03,55.08 -117.81,55.84 -124.60,56.60 -132.81,54.63 -141.02,52.65 -148.88,50.29 -156.74,47.93 -160.74,46.96 -164.74,45.99 -167.16,45.83 -169.59,45.67 -172.01,45.70 -174.42,45.73 -176.33,45.79 -178.23,45.84 -178.86,45.69 -179.49,45.54 -180.03,45.20 -180.58,44.86 -180.99,44.36 -181.40,43.87 -181.63,43.27 -181.86,42.66 -181.88,42.02 -181.91,41.38 -181.73,40.76 -181.54,40.14 -181.17,39.61 -180.80,39.09 -180.29,38.70 -179.77,38.32 -179.15,38.13 -178.54,37.93 -177.90,37.94 -177.25,37.95 -176.64,38.16 -176.04,38.38 -175.53,38.78 -175.02,39.17 -174.67,39.71 -174.32,40.25 -174.16,40.87 -173.99,41.50 -174.04,42.14 -174.08,42.78 -174.33,43.38 -174.58,43.97 -175.00,44.46 -175.43,44.94 -175.98,45.26 -176.54,45.59 -177.17,45.72 -177.80,45.85 -178.44,45.77 -179.08,45.69 -179.66,45.41 -180.24,45.13 -180.70,44.68 -181.16,44.23 -181.46,43.65 -181.75,43.08 -181.84,42.44 -181.94,41.81 -181.82,41.17 -181.71,40.54 -181.40,39.97 -181.09,39.41 -180.61,38.97 -180.14,38.54 -179.55,38.28 -178.96,38.02 -178.32,37.96 -177.68,37.90 -177.68,37.90 -177.68,37.90 -175.80,38.21 -173.92,38.53 -171.22,38.92 -168.52,39.31 -165.98,39.98 -163.44,40.66 -159.31,41.66 -155.17,42.66 -147.42,44.94 -139.68,47.23 -132.41,49.08 -125.14,50.94 -118.53,50.10 -111.92,49.26 -99.81,47.34 -87.69,45.42 -75.86,42.71 -64.02,40.00 -60.72,39.20 -57.41,38.39 -53.31,37.06 -49.20,35.72 -43.97,33.60 -38.75,31.48 -36.30,30.09 -33.85,28.70 -29.16,24.98 -24.48,21.27 -20.16,16.69 -15.85,12.10 -9.15,4.88 -2.45,-2.33 -2.14,-2.59 -1.83,-2.85 -1.46,-3.02 -1.09,-3.20 -0.69,-3.29 -0.29,-3.37 0.11,-3.36 0.52,-3.34 0.91,-3.23 1.30,-3.12 1.66,-2.92 2.01,-2.72 2.31,-2.44 2.60,-2.16 2.83,-1.81 3.05,-1.47 3.18,-1.08 3.31,-0.70 3.35,-0.29 3.38,0.11 3.32,0.51 3.26,0.92 3.10,1.29 2.94,1.67 2.70,2.00 2.45,2.33 2.45,2.33 L 2.45,2.33 Z"></path></g><g transform="translate(461.4425497653023 102.90708140645) rotate(0 -5.236381219059606 18.317924095613932)" stroke="none"><path fill="#d3d3d3" d="M 2.20,3.86 Q 2.20,3.86 -0.38,5.36 -2.97,6.85 -6.73,11.02 -10.49,15.18 -12.53,17.82 -14.58,20.47 -15.73,23.98 -16.87,27.48 -16.48,29.75 -16.08,32.02 -15.06,33.99 -14.03,35.96 -12.60,31.80 -11.16,27.64 -8.13,22.70 -5.10,17.76 -3.46,15.01 -1.83,12.27 -0.48,9.17 0.86,6.08 1.79,4.03 2.72,1.98 3.57,-0.29 4.41,-2.56 6.98,-0.86 9.55,0.83 6.79,2.73 4.03,4.62 1.63,5.97 -0.75,7.33 -4.10,10.34 -7.44,13.35 -9.28,15.29 -11.12,17.22 -12.42,20.99 -13.73,24.76 -14.58,27.97 -15.43,31.18 -18.73,32.51 -22.04,33.83 -20.44,31.77 -18.85,29.71 -16.38,26.92 -13.92,24.13 -12.52,22.28 -11.12,20.42 -8.99,17.81 -6.85,15.19 -5.76,12.47 -4.66,9.75 -2.44,6.35 -0.22,2.94 0.93,0.95 2.08,-1.03 5.04,-4.24 7.99,-7.45 8.87,-7.92 9.74,-8.40 10.71,-8.57 11.69,-8.75 12.67,-8.60 13.66,-8.45 14.54,-8.00 15.42,-7.54 16.11,-6.83 16.80,-6.12 17.23,-5.22 17.66,-4.33 17.78,-3.34 17.90,-2.36 17.70,-1.38 17.50,-0.41 17.00,0.43 16.50,1.29 15.75,1.94 15.00,2.60 14.08,2.98 13.17,3.35 12.17,3.42 11.18,3.49 10.22,3.23 9.26,2.98 8.44,2.43 7.61,1.89 7.00,1.10 6.39,0.32 6.06,-0.61 5.73,-1.54 5.72,-2.53 5.70,-3.53 6.01,-4.47 6.31,-5.42 6.90,-6.21 7.49,-7.01 8.31,-7.58 9.12,-8.15 10.08,-8.42 11.03,-8.70 12.02,-8.66 13.01,-8.62 13.94,-8.26 14.87,-7.91 15.63,-7.28 16.40,-6.64 16.92,-5.80 17.44,-4.95 17.67,-3.99 17.89,-3.02 17.80,-2.03 17.70,-1.04 17.30,-0.14 16.89,0.76 16.22,1.49 15.54,2.22 15.55,2.22 15.55,2.22 14.70,2.65 13.85,3.09 12.24,5.20 10.62,7.31 8.55,9.72 6.48,12.14 5.55,14.33 4.61,16.53 2.70,19.49 0.78,22.45 -1.38,24.52 -3.55,26.60 -5.00,28.23 -6.44,29.86 -8.91,33.51 -11.38,37.15 -13.68,39.00 -15.99,40.86 -20.46,37.45 -24.94,34.04 -24.44,31.58 -23.94,29.13 -23.10,25.34 -22.26,21.55 -21.05,18.38 -19.83,15.20 -18.51,13.20 -17.18,11.20 -15.16,9.36 -13.13,7.51 -9.16,3.40 -5.18,-0.70 -2.74,-1.95 -0.31,-3.19 4.75,-5.64 9.81,-8.08 11.86,-6.84 13.91,-5.60 12.64,-1.17 11.37,3.25 9.63,6.19 7.90,9.13 6.32,12.78 4.75,16.43 3.05,18.94 1.36,21.46 -1.67,27.12 -4.71,32.78 -9.24,37.97 -13.77,43.15 -16.66,42.67 -19.54,42.18 -20.84,40.34 -22.13,38.49 -22.95,35.57 -23.78,32.64 -23.80,29.09 -23.82,25.54 -22.40,20.66 -20.99,15.78 -18.77,12.86 -16.55,9.94 -12.06,4.55 -7.56,-0.84 -4.88,-2.35 -2.20,-3.86 -1.71,-4.07 -1.21,-4.28 -0.68,-4.36 -0.15,-4.44 0.37,-4.40 0.91,-4.35 1.41,-4.18 1.92,-4.01 2.37,-3.72 2.83,-3.43 3.20,-3.04 3.57,-2.65 3.83,-2.19 4.10,-1.72 4.24,-1.20 4.39,-0.69 4.41,-0.15 4.43,0.37 4.32,0.90 4.21,1.42 3.98,1.91 3.74,2.39 3.40,2.81 3.06,3.22 2.63,3.54 2.20,3.86 2.20,3.86 L 2.20,3.86 Z"></path></g><g transform="translate(729.690994571401 15.236381219059638) rotate(0 -15.70348646198238 6.542657170009306)" stroke="none"><path fill="#d3d3d3" d="M 1.84,-4.30 Q 1.84,-4.30 4.48,-3.19 7.12,-2.09 10.39,-0.53 13.65,1.02 13.31,0.68 12.97,0.34 13.48,0.72 13.98,1.09 14.38,1.58 14.78,2.07 15.05,2.63 15.32,3.20 15.45,3.81 15.57,4.43 15.55,5.06 15.53,5.68 15.35,6.29 15.18,6.89 14.87,7.44 14.56,7.98 14.12,8.44 13.69,8.89 13.16,9.23 12.63,9.56 12.03,9.77 11.44,9.97 10.81,10.02 10.19,10.07 9.57,9.97 8.95,9.87 8.37,9.63 7.79,9.38 3.18,9.58 -1.42,9.77 -3.67,10.20 -5.93,10.63 -8.72,10.87 -11.52,11.11 -14.04,11.83 -16.55,12.55 -19.57,13.55 -22.59,14.54 -25.53,15.43 -28.48,16.32 -28.98,16.85 -29.48,17.38 -30.05,17.54 -30.62,17.71 -31.21,17.74 -31.81,17.76 -32.39,17.65 -32.97,17.53 -33.51,17.28 -34.05,17.03 -34.51,16.66 -34.97,16.28 -35.33,15.81 -35.69,15.34 -35.92,14.79 -36.16,14.25 -36.26,13.66 -36.35,13.08 -36.31,12.48 -36.26,11.89 -36.08,11.33 -35.89,10.76 -35.58,10.26 -35.26,9.76 -34.84,9.35 -34.41,8.93 -33.90,8.63 -33.39,8.33 -30.64,7.05 -27.90,5.76 -24.18,5.11 -20.47,4.47 -12.80,3.97 -5.13,3.47 -2.19,3.35 0.74,3.24 2.77,2.54 4.80,1.84 5.41,1.79 6.02,1.73 6.62,1.83 7.22,1.92 7.79,2.16 8.35,2.40 8.84,2.76 9.33,3.13 9.72,3.60 10.11,4.07 10.38,4.62 10.64,5.17 10.77,5.77 10.89,6.36 10.87,6.98 10.85,7.59 10.68,8.17 10.52,8.76 10.21,9.29 9.91,9.82 9.49,10.27 9.07,10.71 8.55,11.04 8.04,11.37 7.46,11.56 6.88,11.76 2.78,10.82 -1.31,9.89 -5.49,8.94 -9.67,8.00 -11.92,7.81 -14.18,7.62 -16.95,7.86 -19.73,8.09 -24.62,7.95 -29.51,7.81 -33.24,8.11 -36.98,8.41 -39.42,9.44 -41.86,10.47 -42.52,10.58 -43.18,10.69 -43.85,10.58 -44.51,10.47 -45.10,10.15 -45.69,9.84 -46.16,9.35 -46.62,8.86 -46.90,8.25 -47.18,7.64 -47.25,6.97 -47.32,6.31 -47.18,5.65 -47.03,4.99 -46.68,4.42 -46.34,3.84 -45.82,3.41 -45.31,2.98 -44.69,2.73 -44.06,2.48 -43.39,2.45 -42.72,2.41 -42.07,2.59 -41.43,2.77 -40.87,3.15 -40.32,3.53 -39.91,4.07 -39.51,4.60 -39.29,5.24 -39.08,5.87 -39.08,6.55 -39.08,7.22 -39.30,7.85 -39.51,8.49 -39.92,9.02 -40.33,9.56 -40.89,9.93 -41.44,10.31 -42.09,10.49 -42.74,10.66 -43.41,10.63 -44.08,10.59 -44.70,10.34 -45.32,10.09 -45.84,9.65 -46.35,9.22 -46.69,8.64 -47.04,8.07 -47.18,7.41 -47.32,6.75 -47.25,6.09 -47.17,5.42 -46.89,4.81 -46.61,4.20 -46.14,3.71 -45.68,3.23 -45.09,2.92 -44.49,2.60 -44.49,2.60 -44.50,2.60 -41.17,1.70 -37.84,0.80 -33.76,0.26 -29.69,-0.27 -25.05,-0.63 -20.42,-0.98 -16.72,-1.24 -13.02,-1.50 -10.67,-1.08 -8.31,-0.67 -1.75,0.58 4.80,1.84 5.41,1.79 6.02,1.73 6.62,1.83 7.22,1.92 7.79,2.16 8.35,2.40 8.84,2.76 9.33,3.12 9.72,3.60 10.11,4.07 10.37,4.62 10.64,5.17 10.77,5.77 10.89,6.36 10.87,6.97 10.85,7.59 10.68,8.17 10.52,8.76 10.21,9.29 9.91,9.82 9.49,10.27 9.07,10.71 8.55,11.04 8.04,11.37 7.46,11.56 6.88,11.76 6.40,11.88 5.93,12.00 3.51,12.37 1.09,12.75 -1.79,12.83 -4.69,12.92 -9.25,13.44 -13.81,13.96 -16.27,14.53 -18.74,15.11 -21.44,15.56 -24.14,16.02 -26.81,16.70 -29.48,17.38 -30.05,17.54 -30.62,17.71 -31.21,17.74 -31.81,17.76 -32.39,17.65 -32.97,17.53 -33.51,17.28 -34.05,17.03 -34.51,16.66 -34.97,16.28 -35.33,15.81 -35.69,15.34 -35.92,14.79 -36.16,14.25 -36.26,13.66 -36.35,13.08 -36.31,12.48 -36.26,11.89 -36.08,11.33 -35.89,10.77 -35.58,10.26 -35.26,9.76 -34.84,9.35 -34.41,8.93 -33.90,8.63 -33.39,8.33 -34.47,10.11 -35.55,11.89 -33.35,9.62 -31.15,7.34 -28.41,6.54 -25.67,5.74 -22.38,4.53 -19.10,3.32 -15.64,2.39 -12.18,1.46 -9.77,1.37 -7.36,1.27 -4.44,0.91 -1.52,0.55 3.33,0.19 8.18,-0.16 10.57,0.09 12.97,0.34 13.48,0.72 13.98,1.09 14.38,1.58 14.78,2.07 15.05,2.63 15.32,3.20 15.45,3.81 15.57,4.43 15.55,5.06 15.53,5.68 15.35,6.29 15.18,6.89 14.87,7.44 14.56,7.98 14.12,8.44 13.69,8.89 13.16,9.23 12.63,9.56 12.03,9.76 11.44,9.97 10.81,10.02 10.19,10.07 9.57,9.97 8.95,9.87 8.37,9.63 7.79,9.38 5.59,7.99 3.40,6.60 0.78,5.45 -1.84,4.30 -2.33,4.01 -2.81,3.73 -3.22,3.34 -3.63,2.95 -3.93,2.47 -4.23,1.99 -4.41,1.46 -4.58,0.92 -4.63,0.36 -4.67,-0.19 -4.58,-0.75 -4.49,-1.31 -4.27,-1.82 -4.04,-2.34 -3.70,-2.79 -3.36,-3.24 -2.93,-3.60 -2.49,-3.96 -1.98,-4.20 -1.47,-4.44 -0.92,-4.55 -0.36,-4.66 0.19,-4.64 0.75,-4.61 1.30,-4.46 1.84,-4.30 1.84,-4.30 L 1.84,-4.30 Z"></path></g><g transform="translate(101.59701550446988 187.9614952036086) rotate(0 -38.602740338099835 -5.889509950751446)" stroke="none"><path fill="#d3d3d3" d="M 0,3.90 Q 0,3.90 -4.13,3.76 -8.27,3.62 -11.92,3.62 -15.56,3.63 -22.64,2.34 -29.73,1.06 -32.98,0.68 -36.24,0.30 -42.96,-1.16 -49.69,-2.64 -53.55,-3.22 -57.41,-3.80 -62.55,-4.89 -67.69,-5.98 -70.44,-6.63 -73.20,-7.28 -75.63,-7.67 -78.07,-8.07 -78.63,-8.31 -79.20,-8.54 -79.67,-8.95 -80.13,-9.35 -80.44,-9.88 -80.75,-10.41 -80.87,-11.02 -81.00,-11.62 -80.92,-12.23 -80.85,-12.84 -80.58,-13.39 -80.32,-13.95 -79.89,-14.39 -79.46,-14.83 -78.91,-15.11 -78.37,-15.39 -77.76,-15.48 -77.15,-15.58 -76.55,-15.47 -75.94,-15.36 -75.40,-15.07 -74.86,-14.77 -74.44,-14.32 -74.03,-13.87 -73.77,-13.30 -73.52,-12.74 -73.47,-12.13 -73.41,-11.52 -73.55,-10.92 -73.69,-10.32 -74.01,-9.80 -74.34,-9.27 -74.81,-8.88 -75.28,-8.49 -75.86,-8.27 -76.43,-8.05 -77.05,-8.03 -77.66,-8.00 -78.25,-8.17 -78.84,-8.34 -79.35,-8.70 -79.85,-9.05 -80.22,-9.54 -80.58,-10.04 -80.77,-10.62 -80.96,-11.21 -80.95,-11.82 -80.94,-12.44 -80.74,-13.02 -80.54,-13.60 -80.16,-14.08 -79.78,-14.57 -79.26,-14.91 -78.75,-15.25 -78.16,-15.40 -77.56,-15.56 -76.95,-15.52 -76.33,-15.48 -76.33,-15.48 -76.33,-15.48 -73.72,-14.69 -71.10,-13.91 -68.80,-12.96 -66.50,-12.02 -61.50,-11.12 -56.49,-10.22 -52.44,-9.67 -48.39,-9.12 -41.80,-7.93 -35.21,-6.73 -31.92,-6.15 -28.63,-5.57 -22.09,-4.60 -15.54,-3.63 -11.91,-3.62 -8.27,-3.62 -4.13,-3.76 0,-3.90 0.46,-3.84 0.93,-3.78 1.37,-3.62 1.81,-3.45 2.20,-3.18 2.58,-2.92 2.89,-2.56 3.21,-2.21 3.43,-1.80 3.64,-1.38 3.76,-0.92 3.87,-0.47 3.87,0.00 3.87,0.47 3.76,0.92 3.64,1.38 3.42,1.80 3.21,2.21 2.89,2.56 2.58,2.92 2.20,3.18 1.81,3.45 1.37,3.62 0.93,3.78 0.46,3.84 -0.00,3.90 -0.00,3.90 L 0,3.90 Z"></path></g><g transform="translate(105.51955935808536 204.9731248607069) rotate(0 96.8315479669294 -0.0018857317321163691)" stroke="none"><path fill="#d3d3d3" d="M 0.37,-3.74 Q 0.37,-3.74 4.13,-3.33 7.89,-2.92 10.19,-2.93 12.50,-2.94 15.66,-2.90 18.82,-2.87 25.03,-1.98 31.24,-1.09 34.00,-0.87 36.76,-0.66 43.17,0.04 49.58,0.75 56.57,1.88 63.56,3.01 69.11,3.91 74.66,4.80 80.01,5.59 85.36,6.38 90.16,6.73 94.97,7.08 100.76,7.25 106.56,7.42 111.66,7.50 116.77,7.59 122.32,7.63 127.87,7.68 133.44,6.97 139.01,6.25 145.87,4.84 152.73,3.42 158.52,1.36 164.32,-0.69 167.52,-2.09 170.72,-3.48 174.32,-5.07 177.93,-6.66 181.37,-8.58 184.80,-10.51 186.41,-12.09 188.01,-13.67 188.80,-14.03 189.58,-14.40 190.14,-14.67 190.71,-14.95 191.32,-15.08 191.94,-15.21 192.56,-15.20 193.19,-15.18 193.80,-15.01 194.41,-14.84 194.95,-14.53 195.50,-14.23 195.96,-13.80 196.42,-13.37 196.76,-12.84 197.10,-12.31 197.31,-11.72 197.52,-11.12 197.57,-10.50 197.63,-9.87 197.54,-9.25 197.44,-8.63 197.20,-8.04 196.97,-7.46 196.59,-6.96 196.22,-6.45 195.74,-6.05 195.26,-5.64 196.38,-6.06 197.51,-6.47 197.37,-5.65 197.22,-4.83 196.82,-4.10 196.42,-3.36 195.81,-2.80 195.19,-2.23 194.43,-1.89 193.67,-1.55 192.84,-1.47 192.01,-1.39 191.20,-1.58 190.38,-1.77 189.67,-2.21 188.96,-2.65 188.43,-3.29 187.90,-3.93 187.60,-4.71 187.30,-5.49 187.26,-6.33 187.23,-7.16 187.46,-7.96 187.70,-8.76 188.17,-9.45 188.65,-10.13 189.32,-10.63 189.99,-11.13 190.79,-11.38 191.58,-11.64 192.42,-11.63 193.25,-11.62 194.04,-11.34 194.83,-11.07 195.48,-10.55 196.14,-10.04 196.60,-9.34 197.06,-8.65 197.27,-7.84 197.49,-7.03 197.43,-6.20 197.38,-5.37 197.06,-4.59 196.74,-3.82 196.19,-3.19 195.64,-2.56 194.92,-2.14 194.20,-1.72 193.38,-1.55 192.57,-1.38 191.74,-1.48 190.91,-1.58 190.16,-1.94 189.40,-2.30 188.80,-2.89 188.21,-3.47 187.82,-4.21 187.44,-4.95 187.32,-5.78 187.19,-6.60 187.19,-6.60 187.19,-6.60 188.38,-10.50 189.58,-14.39 190.14,-14.67 190.71,-14.95 191.32,-15.08 191.94,-15.21 192.56,-15.20 193.19,-15.18 193.80,-15.01 194.40,-14.84 194.95,-14.53 195.50,-14.23 195.96,-13.80 196.42,-13.37 196.76,-12.84 197.10,-12.31 197.31,-11.72 197.52,-11.12 197.57,-10.50 197.63,-9.87 197.54,-9.25 197.44,-8.63 197.21,-8.04 196.97,-7.46 196.59,-6.96 196.22,-6.45 195.74,-6.05 195.26,-5.64 193.59,-5.09 191.93,-4.53 188.63,-2.61 185.33,-0.69 182.80,-0.04 180.27,0.60 176.56,1.31 172.85,2.02 169.48,3.18 166.10,4.33 159.96,6.51 153.83,8.68 146.77,10.16 139.71,11.63 133.78,12.40 127.85,13.17 122.28,13.17 116.71,13.17 111.57,13.15 106.43,13.12 100.52,13.03 94.61,12.95 89.58,12.69 84.56,12.44 79.16,11.80 73.76,11.17 68.18,10.49 62.60,9.81 55.79,9.00 48.99,8.19 42.41,7.87 35.83,7.54 32.82,7.11 29.81,6.67 24.23,5.98 18.65,5.29 15.30,5.18 11.95,5.08 9.55,4.75 7.15,4.42 3.39,4.08 -0.37,3.74 -0.81,3.64 -1.26,3.55 -1.66,3.34 -2.07,3.14 -2.42,2.85 -2.76,2.55 -3.03,2.18 -3.29,1.82 -3.46,1.40 -3.63,0.97 -3.70,0.52 -3.76,0.08 -3.72,-0.37 -3.67,-0.82 -3.52,-1.25 -3.37,-1.67 -3.12,-2.05 -2.87,-2.43 -2.53,-2.74 -2.20,-3.05 -1.80,-3.27 -1.41,-3.49 -0.97,-3.61 -0.53,-3.72 -0.07,-3.73 0.37,-3.74 0.37,-3.74 L 0.37,-3.74 Z"></path></g><g transform="translate(159.57198981384812 295.70661572724526) rotate(0 10.647477204350281 -10.647477204350274)" stroke="none"><path fill="#d3d3d3" d="M -3.30,-3.30 Q -3.30,-3.30 -1.14,-5.46 1.01,-7.62 5.00,-11.23 8.99,-14.84 10.91,-16.88 12.83,-18.92 15.11,-21.38 17.38,-23.83 17.87,-24.09 18.37,-24.36 18.91,-24.49 19.45,-24.63 20.01,-24.63 20.56,-24.64 21.11,-24.51 21.65,-24.38 22.15,-24.12 22.64,-23.87 23.06,-23.50 23.48,-23.13 23.80,-22.67 24.12,-22.22 24.32,-21.70 24.52,-21.18 24.59,-20.62 24.66,-20.07 24.60,-19.51 24.54,-18.96 24.34,-18.44 24.15,-17.91 23.83,-17.45 23.52,-16.99 23.10,-16.62 22.69,-16.25 20.20,-16.14 17.71,-16.04 17.13,-16.52 16.55,-16.99 16.16,-17.63 15.76,-18.26 15.59,-18.99 15.42,-19.72 15.49,-20.47 15.56,-21.21 15.86,-21.90 16.17,-22.58 16.67,-23.13 17.18,-23.68 17.84,-24.04 18.49,-24.40 19.23,-24.54 19.97,-24.67 20.71,-24.56 21.45,-24.45 22.12,-24.11 22.78,-23.76 23.31,-23.23 23.83,-22.69 24.15,-22.02 24.48,-21.34 24.57,-20.60 24.66,-19.86 24.51,-19.12 24.36,-18.39 23.98,-17.74 23.61,-17.09 23.04,-16.60 22.48,-16.11 21.79,-15.82 21.10,-15.53 20.35,-15.48 19.60,-15.43 18.88,-15.62 18.15,-15.81 17.53,-16.22 16.90,-16.63 16.44,-17.22 15.98,-17.81 15.73,-18.52 15.48,-19.23 15.47,-19.97 15.46,-20.72 15.69,-21.44 15.92,-22.15 16.36,-22.75 16.81,-23.35 17.42,-23.78 18.03,-24.21 18.75,-24.42 19.47,-24.63 20.22,-24.60 20.97,-24.57 19.17,-24.20 17.38,-23.83 17.87,-24.09 18.37,-24.36 18.91,-24.49 19.45,-24.63 20.01,-24.63 20.56,-24.64 21.11,-24.51 21.65,-24.38 22.14,-24.12 22.64,-23.87 23.06,-23.50 23.48,-23.13 23.80,-22.67 24.12,-22.22 24.32,-21.70 24.52,-21.18 24.59,-20.62 24.66,-20.07 24.60,-19.52 24.54,-18.96 24.34,-18.44 24.15,-17.91 23.83,-17.45 23.52,-16.99 23.11,-16.62 22.69,-16.25 20.80,-14.53 18.90,-12.81 16.87,-10.90 14.84,-8.99 11.23,-5.00 7.62,-1.02 5.46,1.14 3.30,3.30 2.86,3.65 2.41,4.00 1.90,4.23 1.39,4.46 0.83,4.56 0.28,4.66 -0.27,4.63 -0.84,4.59 -1.37,4.43 -1.91,4.26 -2.40,3.97 -2.88,3.68 -3.28,3.28 -3.67,2.88 -3.97,2.40 -4.26,1.91 -4.43,1.38 -4.59,0.84 -4.63,0.28 -4.66,-0.28 -4.56,-0.83 -4.46,-1.39 -4.23,-1.90 -4.00,-2.41 -3.65,-2.86 -3.30,-3.30 -3.30,-3.30 L -3.30,-3.30 Z"></path></g></svg>