<svg version="1.1" xmlns="http://www.w3.org/2000/svg" viewBox="0 0 661.0061703247429 773.2923162880129" width="661.0061703247429" height="773.2923162880129" class="excalidraw-svg"><!-- svg-source:excalidraw --><metadata></metadata><defs><style class="style-fonts">
      </style></defs><rect x="0" y="0" width="661.0061703247429" height="773.2923162880129" fill="#121212"></rect><g stroke-linecap="round" transform="translate(395.03411411281 130.4103898895546) rotate(41.03394595866584 61.6964478711865 81.3829420075748)"><path d="M30.85 0 C47.17 -0.75, 65.11 0.94, 92.54 0 M30.85 0 C44.53 0.01, 58.22 -0.91, 92.54 0 M92.54 0 C112.52 1.8, 124.3 10.55, 123.39 30.85 M92.54 0 C113.18 0.87, 124.23 9, 123.39 30.85 M123.39 30.85 C124.45 57.69, 124.11 87.5, 123.39 131.92 M123.39 30.85 C124.42 66.68, 124.27 103.64, 123.39 131.92 M123.39 131.92 C123.38 151.12, 113.95 162.35, 92.54 162.77 M123.39 131.92 C123.92 152.66, 113.76 164.84, 92.54 162.77 M92.54 162.77 C73.67 160.95, 55.63 163.72, 30.85 162.77 M92.54 162.77 C73.97 163.16, 53.7 162.77, 30.85 162.77 M30.85 162.77 C10.44 162.84, 1.9 153.66, 0 131.92 M30.85 162.77 C12.07 164.32, 1.62 152.72, 0 131.92 M0 131.92 C-1.7 108.99, 0.59 83.19, 0 30.85 M0 131.92 C0.93 103.46, -0.87 76.93, 0 30.85 M0 30.85 C0.49 8.78, 11.2 1.12, 30.85 0 M0 30.85 C0.02 12.07, 11.79 -0.11, 30.85 0" stroke="#ff8383" stroke-width="1" fill="none"></path></g><g stroke-linecap="round" transform="translate(491.7823609910371 213.51522102004446) rotate(42.6111138480889 59.98161589591382 81.3829420075748)"><path d="M29.99 0 C46.6 1.12, 63.29 -0.31, 89.97 0 M29.99 0 C52.35 -0.71, 76.02 0.58, 89.97 0 M89.97 0 C110.88 0.26, 120.03 10.75, 119.96 29.99 M89.97 0 C110.8 -1.28, 119.53 10.64, 119.96 29.99 M119.96 29.99 C120.8 53.07, 121.55 77.25, 119.96 132.78 M119.96 29.99 C121.05 51.7, 120.58 72.48, 119.96 132.78 M119.96 132.78 C120.8 152.35, 110.42 162.92, 89.97 162.77 M119.96 132.78 C120.61 154.84, 109.76 164.15, 89.97 162.77 M89.97 162.77 C70.98 163.17, 54.18 162.78, 29.99 162.77 M89.97 162.77 C70.24 162.82, 51.74 162.97, 29.99 162.77 M29.99 162.77 C11.89 163.94, 1.55 154.12, 0 132.78 M29.99 162.77 C11.62 163, -1.43 152.22, 0 132.78 M0 132.78 C1.35 111.34, 0.53 91.1, 0 29.99 M0 132.78 C-1.83 112.32, -0.62 89.2, 0 29.99 M0 29.99 C0.92 11.11, 10.01 1.55, 29.99 0 M0 29.99 C1.51 9.88, 9.32 -0.75, 29.99 0" stroke="#ff8383" stroke-width="1" fill="none"></path></g><g stroke-linecap="round"><g transform="translate(10.65386129450053 761.9908631230853) rotate(0 76.56973921363328 -133.09870570886721)"><path d="M0.53 -0.86 C26.24 -45.11, 128.27 -221.68, 153.79 -265.92 M-0.65 1.3 C24.92 -43.22, 127.12 -222.56, 152.67 -267.5" stroke="#d3d3d3" stroke-width="4" fill="none"></path></g></g><mask></mask><g stroke-linecap="round"><g transform="translate(307.03525639538884 751.531687136654) rotate(0 -58.68637927140341 -132.54901150688661)"><path d="M-0.33 1.03 C-20.06 -42.88, -98.2 -219.93, -117.87 -264.35 M1.69 0.53 C-18.28 -43.66, -99.46 -221.98, -119.07 -266.13" stroke="#d3d3d3" stroke-width="4" fill="none"></path></g></g><mask></mask><g stroke-linecap="round"><g transform="translate(180.1218831980234 490.1317156807586) rotate(0 -6.5461404585514344 -162.64094352018918)"><path d="M-0.48 0.65 C-2.85 -53.84, -12.32 -271.76, -14.57 -325.93 M1.47 -0.05 C-0.5 -53.86, -9.63 -270.28, -12.36 -324.64" stroke="#d3d3d3" stroke-width="4" fill="none"></path></g></g><mask></mask><g stroke-linecap="round"><g transform="translate(169.47252052045314 216.6476956796664) rotate(0 127.89482253865802 72.73851613531296)"><path d="M-0.96 -0.46 C41.91 23.97, 213.65 122.76, 256.75 147.22 M0.74 -1.75 C43.46 22.32, 212.88 120.76, 255.61 145.67" stroke="#d3d3d3" stroke-width="4" fill="none"></path></g></g><mask></mask><g stroke-linecap="round"><g transform="translate(176.39696121732123 193.6363643294544) rotate(0 105.03269353769726 43.165590695433934)"><path d="M-0.35 1.08 C34.88 15.18, 175.37 70.22, 210.42 84.11 M1.66 0.6 C36.87 14.96, 175.17 72.11, 209.76 85.73" stroke="#d3d3d3" stroke-width="4" fill="none"></path></g></g><mask></mask><g stroke-linecap="round" transform="translate(72.50943313747734 10) rotate(0 100.73889283221908 77.65224422480304)"><path d="M101.82 -0.18 C114.03 -1.41, 129.13 1.82, 141.08 5.66 C153.03 9.5, 164.58 15.64, 173.51 22.87 C182.43 30.09, 189.88 39.62, 194.64 49.03 C199.4 58.44, 202.45 69.31, 202.06 79.32 C201.66 89.34, 197.56 100.04, 192.27 109.14 C186.98 118.24, 179.36 127.12, 170.3 133.91 C161.24 140.69, 149.88 146.23, 137.9 149.86 C125.92 153.49, 111.32 155.84, 98.42 155.71 C85.51 155.59, 72.14 153.09, 60.47 149.13 C48.81 145.17, 37.19 139.11, 28.44 131.94 C19.68 124.77, 12.59 115.37, 7.95 106.11 C3.32 96.85, 0.63 86.43, 0.61 76.39 C0.6 66.35, 2.92 54.88, 7.85 45.87 C12.77 36.86, 20.85 29.03, 30.17 22.34 C39.5 15.64, 50.04 9.26, 63.81 5.72 C77.57 2.18, 102.99 1.59, 112.77 1.1 C122.55 0.62, 122.73 1.6, 122.48 2.8 M103.77 1.02 C115.94 -0.12, 130.64 2.9, 142.07 6.63 C153.49 10.36, 163.85 16.55, 172.34 23.41 C180.84 30.28, 188.04 38.49, 193.03 47.81 C198.02 57.14, 202.36 69.26, 202.28 79.35 C202.2 89.44, 197.86 99.54, 192.56 108.34 C187.27 117.15, 179.46 125.38, 170.5 132.19 C161.55 139, 151 145.11, 138.82 149.2 C126.64 153.29, 110.42 156.97, 97.43 156.73 C84.43 156.48, 72.26 151.77, 60.84 147.71 C49.42 143.65, 37.86 139.12, 28.89 132.37 C19.91 125.62, 11.63 116.57, 6.98 107.2 C2.33 97.83, 0.84 86.32, 1 76.14 C1.17 65.96, 3.22 55.32, 7.95 46.12 C12.69 36.93, 20.27 27.69, 29.44 20.98 C38.61 14.26, 51.02 9.14, 62.98 5.85 C74.94 2.57, 94.49 1.76, 101.21 1.27 C107.94 0.78, 103.37 1.85, 103.33 2.92" stroke="#d3d3d3" stroke-width="4" fill="none"></path></g><g stroke-linecap="round" transform="translate(114.76828121021833 50.90150666573663) rotate(0 12.808181190308403 18.081890182872428)"><path d="M12.39 -0.37 C14.98 -0.72, 18.47 1.21, 20.67 3.66 C22.88 6.1, 25.09 10.47, 25.6 14.3 C26.11 18.14, 25.09 23.22, 23.74 26.67 C22.39 30.12, 19.95 33.54, 17.5 34.99 C15.06 36.44, 11.7 36.5, 9.07 35.35 C6.43 34.19, 3.2 31.31, 1.69 28.07 C0.18 24.83, -0.41 19.76, 0 15.91 C0.41 12.05, 1.99 7.6, 4.16 4.94 C6.33 2.28, 11.51 0.72, 13.02 -0.04 C14.54 -0.8, 13.35 0.13, 13.25 0.36 M11.43 0.29 C14 -0.38, 17.98 1.03, 20.18 3.1 C22.38 5.16, 23.87 9, 24.62 12.67 C25.37 16.34, 25.55 21.48, 24.67 25.13 C23.79 28.79, 21.72 32.77, 19.36 34.61 C17.01 36.46, 13.25 37.14, 10.54 36.22 C7.83 35.29, 4.96 32.28, 3.13 29.08 C1.3 25.87, -0.38 21, -0.45 17 C-0.53 13, 0.67 7.84, 2.68 5.05 C4.7 2.27, 10.24 1.06, 11.63 0.27 C13.01 -0.52, 11.04 0.16, 10.99 0.32" stroke="#d3d3d3" stroke-width="4" fill="none"></path></g><g stroke-linecap="round" transform="translate(196.89537796398196 49.39284088198019) rotate(0 12.808181190308403 18.081890182872428)"><path d="M10.56 0.27 C13.11 -0.53, 17.09 0.57, 19.39 2.53 C21.69 4.49, 23.47 8.39, 24.35 12.02 C25.22 15.65, 25.46 20.71, 24.64 24.31 C23.81 27.92, 21.77 31.67, 19.39 33.64 C17.02 35.61, 13.11 36.74, 10.38 36.13 C7.64 35.52, 4.7 32.92, 2.98 29.97 C1.26 27.01, -0.02 22.32, 0.04 18.42 C0.1 14.52, 1.49 9.6, 3.36 6.56 C5.23 3.52, 9.96 1.28, 11.28 0.18 C12.61 -0.91, 11.38 -0.34, 11.31 0 M13.56 0.21 C16.06 0.04, 18.86 1.91, 20.86 4.45 C22.85 6.98, 24.94 11.51, 25.53 15.42 C26.13 19.34, 25.79 24.58, 24.45 27.96 C23.1 31.34, 20.1 34.56, 17.46 35.73 C14.83 36.9, 11.38 36.52, 8.65 34.99 C5.92 33.46, 2.61 30.08, 1.09 26.54 C-0.43 23, -1.17 17.51, -0.48 13.76 C0.21 10.02, 3.01 6.39, 5.24 4.07 C7.46 1.75, 11.57 0.56, 12.88 -0.17 C14.18 -0.9, 12.92 -0.59, 13.06 -0.32" stroke="#d3d3d3" stroke-width="4" fill="none"></path></g><g transform="translate(519.1813663544866 318.030045668796) rotate(25.54466894453413 26.70458151790357 0.9054131797276952)" stroke="none"><path fill="#d3d3d3" d="M 0.79,0.34 Q 0.79,0.34 0.57,0.96 0.35,1.57 0.24,2.48 0.13,3.38 0.14,5.07 0.15,6.75 0.26,7.63 0.38,8.50 0.73,9.88 1.09,11.25 1.29,12.04 1.49,12.82 2.43,14.25 3.37,15.67 3.96,16.49 4.55,17.31 5.45,18.24 6.36,19.17 7.56,19.97 8.77,20.78 10.41,21.65 12.04,22.51 12.92,22.96 13.80,23.41 15.31,23.76 16.81,24.11 17.73,24.24 18.65,24.38 20.34,24.63 22.03,24.88 23.00,24.97 23.97,25.06 25.59,25.20 27.21,25.34 27.99,25.35 28.77,25.36 29.83,25.32 30.90,25.28 31.54,25.20 32.19,25.12 33.70,24.80 35.20,24.48 36.12,24.24 37.04,24.00 38.58,23.66 40.11,23.31 40.90,23.05 41.70,22.79 43.22,22.12 44.73,21.45 45.54,20.99 46.34,20.53 48.06,19.32 49.78,18.11 50.69,17.43 51.61,16.75 53.20,15.35 54.79,13.94 55.63,13.10 56.47,12.26 57.22,10.92 57.97,9.59 58.26,8.76 58.55,7.94 58.77,6.52 58.99,5.11 59.05,4.31 59.11,3.52 58.91,2.14 58.71,0.77 58.29,-1.03 57.87,-2.84 57.02,-4.68 56.17,-6.53 55.21,-8.18 54.25,-9.83 53.25,-11.31 52.24,-12.79 51.40,-13.74 50.56,-14.69 49.71,-15.42 48.85,-16.16 47.57,-16.88 46.29,-17.60 44.79,-18.35 43.29,-19.10 41.12,-19.84 38.95,-20.58 35.97,-21.24 32.98,-21.90 30.15,-22.44 27.31,-22.98 25.11,-23.12 22.91,-23.27 20.86,-22.56 18.80,-21.86 16.07,-20.78 13.35,-19.70 10.65,-18.30 7.95,-16.89 5.71,-15.28 3.46,-13.66 1.58,-11.70 -0.29,-9.74 -1.60,-7.80 -2.90,-5.87 -3.71,-4.36 -4.53,-2.86 -4.94,-1.24 -5.35,0.37 -5.35,1.79 -5.35,3.21 -5.03,4.27 -4.70,5.33 -4.22,5.87 -3.74,6.41 -2.60,7.48 -1.46,8.55 -1.40,8.67 -1.33,8.78 -1.31,8.91 -1.29,9.04 -1.31,9.17 -1.33,9.30 -1.39,9.42 -1.45,9.54 -1.55,9.63 -1.64,9.72 -1.76,9.78 -1.88,9.83 -2.02,9.85 -2.15,9.86 -2.28,9.84 -2.41,9.81 -2.52,9.74 -2.63,9.67 -2.72,9.57 -2.81,9.47 -2.85,9.35 -2.90,9.23 -2.91,9.10 -2.92,8.96 -2.89,8.84 -2.85,8.71 -2.78,8.60 -2.70,8.49 -2.60,8.41 -2.49,8.33 -2.37,8.28 -2.24,8.24 -2.11,8.24 -1.98,8.24 -1.85,8.28 -1.73,8.32 -1.62,8.40 -1.52,8.48 -1.44,8.59 -1.37,8.70 -1.33,8.83 -1.29,8.95 -1.30,9.09 -1.31,9.22 -1.36,9.34 -1.40,9.46 -1.49,9.57 -1.57,9.67 -1.69,9.74 -1.80,9.81 -1.93,9.83 -2.06,9.86 -2.19,9.85 -2.32,9.84 -2.44,9.78 -2.56,9.73 -2.66,9.64 -2.76,9.55 -2.76,9.55 -2.75,9.55 -3.85,8.42 -4.94,7.30 -5.45,6.51 -5.95,5.72 -6.31,4.47 -6.67,3.21 -6.64,1.63 -6.62,0.05 -6.15,-1.71 -5.68,-3.48 -4.84,-5.04 -3.99,-6.61 -2.62,-8.63 -1.24,-10.65 0.72,-12.69 2.69,-14.72 5.02,-16.39 7.34,-18.06 10.10,-19.49 12.86,-20.92 15.62,-22.01 18.39,-23.11 20.67,-23.84 22.96,-24.58 25.26,-24.43 27.56,-24.28 30.41,-23.73 33.27,-23.19 36.32,-22.51 39.38,-21.83 41.63,-21.06 43.88,-20.29 45.41,-19.53 46.95,-18.76 48.34,-17.97 49.72,-17.18 50.65,-16.38 51.57,-15.59 52.47,-14.58 53.37,-13.56 54.41,-12.05 55.45,-10.54 56.46,-8.83 57.46,-7.13 58.38,-5.15 59.29,-3.18 59.75,-1.31 60.21,0.55 60.45,2.12 60.69,3.69 60.55,4.51 60.41,5.33 60.17,6.90 59.93,8.47 59.54,9.37 59.16,10.26 58.31,11.74 57.47,13.23 56.60,14.11 55.73,15.00 54.11,16.46 52.50,17.91 51.58,18.63 50.66,19.35 48.89,20.63 47.13,21.91 46.25,22.39 45.38,22.88 43.77,23.63 42.17,24.38 41.32,24.60 40.47,24.82 38.96,25.20 37.45,25.58 36.50,25.82 35.56,26.06 33.92,26.45 32.27,26.85 31.63,26.83 30.98,26.80 29.82,26.88 28.66,26.97 27.88,26.87 27.10,26.77 25.46,26.65 23.81,26.53 22.82,26.41 21.82,26.30 20.11,26.07 18.40,25.84 17.45,25.66 16.50,25.48 14.82,25.09 13.15,24.70 12.26,24.23 11.38,23.76 9.68,22.87 7.98,21.98 6.64,21.10 5.30,20.23 4.30,19.23 3.29,18.24 2.66,17.40 2.03,16.56 0.93,14.89 -0.17,13.22 -0.30,12.45 -0.43,11.67 -0.86,10.18 -1.29,8.70 -1.38,7.74 -1.48,6.79 -1.55,4.99 -1.61,3.19 -1.50,2.02 -1.39,0.85 -1.09,0.25 -0.79,-0.34 -0.74,-0.43 -0.69,-0.52 -0.62,-0.59 -0.54,-0.67 -0.46,-0.73 -0.37,-0.78 -0.27,-0.82 -0.17,-0.85 -0.06,-0.86 0.03,-0.86 0.14,-0.85 0.24,-0.83 0.34,-0.79 0.43,-0.75 0.52,-0.68 0.60,-0.62 0.67,-0.54 0.73,-0.46 0.78,-0.36 0.82,-0.27 0.84,-0.17 0.86,-0.06 0.86,0.03 0.85,0.14 0.82,0.24 0.79,0.34 0.79,0.34 L 0.79,0.34 Z"></path></g><g transform="translate(553.3106229326349 295.5466961761108) rotate(25.54466894453413 -13.276329500658221 -17.199167031328074)" stroke="none"><path fill="#d3d3d3" d="M -0.57,0.53 Q -0.57,0.53 -1.68,-0.69 -2.80,-1.92 -4.43,-4.21 -6.05,-6.51 -7.08,-8.09 -8.11,-9.67 -9.59,-12.08 -11.07,-14.49 -12.03,-15.84 -12.99,-17.19 -14.01,-18.64 -15.03,-20.10 -16.57,-21.90 -18.11,-23.71 -20.07,-25.96 -22.03,-28.21 -23.04,-29.34 -24.04,-30.47 -25.28,-31.94 -26.51,-33.40 -26.62,-33.42 -26.73,-33.43 -26.84,-33.48 -26.94,-33.52 -27.02,-33.60 -27.10,-33.68 -27.15,-33.78 -27.20,-33.87 -27.22,-33.98 -27.24,-34.09 -27.22,-34.20 -27.20,-34.31 -27.15,-34.41 -27.09,-34.51 -27.01,-34.59 -26.93,-34.66 -26.83,-34.71 -26.73,-34.75 -26.62,-34.77 -26.51,-34.78 -26.40,-34.75 -26.29,-34.73 -26.20,-34.67 -26.10,-34.61 -26.03,-34.53 -25.96,-34.44 -25.92,-34.34 -25.88,-34.24 -25.87,-34.12 -25.86,-34.01 -25.89,-33.91 -25.92,-33.80 -25.99,-33.71 -26.05,-33.62 -26.14,-33.55 -26.23,-33.48 -26.33,-33.45 -26.44,-33.41 -26.55,-33.41 -26.66,-33.41 -26.77,-33.45 -26.87,-33.49 -26.96,-33.55 -27.05,-33.62 -27.11,-33.71 -27.17,-33.81 -27.20,-33.91 -27.23,-34.02 -27.23,-34.13 -27.22,-34.24 -27.18,-34.35 -27.14,-34.45 -27.06,-34.53 -26.99,-34.62 -26.89,-34.67 -26.80,-34.73 -26.69,-34.75 -26.58,-34.78 -26.58,-34.78 -26.58,-34.78 -24.82,-33.07 -23.05,-31.35 -22.04,-30.22 -21.03,-29.09 -19.06,-26.83 -17.09,-24.58 -15.51,-22.73 -13.92,-20.87 -12.90,-19.43 -11.88,-17.98 -10.89,-16.60 -9.89,-15.22 -8.41,-12.83 -6.94,-10.44 -5.91,-8.89 -4.88,-7.35 -3.29,-5.14 -1.70,-2.93 -0.56,-1.73 0.57,-0.53 0.62,-0.45 0.68,-0.37 0.71,-0.29 0.75,-0.20 0.76,-0.11 0.78,-0.01 0.77,0.07 0.76,0.16 0.73,0.25 0.69,0.34 0.64,0.42 0.59,0.50 0.52,0.56 0.45,0.63 0.37,0.67 0.29,0.72 0.20,0.74 0.11,0.77 0.01,0.77 -0.07,0.77 -0.16,0.75 -0.25,0.73 -0.34,0.69 -0.42,0.65 -0.50,0.59 -0.57,0.53 -0.57,0.53 L -0.57,0.53 Z"></path></g><g transform="translate(539.843457747075 249.51808381481396) rotate(25.54466894453413 4.827773234758915 -2.5647262874290107)" stroke="none"><path fill="#d3d3d3" d="M 1.23,0.30 Q 1.23,0.30 0.89,1.33 0.56,2.35 0.46,3.14 0.37,3.94 0.66,4.60 0.94,5.25 1.50,6.15 2.06,7.05 2.57,6.37 3.08,5.69 3.93,5.17 4.79,4.64 5.26,4.25 5.72,3.86 6.34,3.26 6.96,2.66 7.68,1.77 8.40,0.89 9.29,-0.43 10.18,-1.76 10.64,-2.78 11.09,-3.81 11.24,-4.43 11.39,-5.05 11.59,-6.12 11.79,-7.19 11.84,-7.91 11.88,-8.63 11.70,-9.87 11.52,-11.11 11.36,-11.65 11.20,-12.20 9.97,-11.99 8.74,-11.77 7.35,-11.06 5.95,-10.35 4.49,-9.30 3.02,-8.24 1.67,-6.31 0.32,-4.38 -0.52,-2.46 -1.36,-0.54 -1.71,1.18 -2.07,2.90 -1.97,5.22 -1.88,7.53 -1.90,7.66 -1.92,7.80 -1.98,7.92 -2.04,8.04 -2.14,8.13 -2.23,8.22 -2.36,8.28 -2.48,8.34 -2.61,8.36 -2.75,8.37 -2.88,8.35 -3.01,8.32 -3.13,8.25 -3.24,8.18 -3.33,8.08 -3.42,7.98 -3.47,7.85 -3.53,7.73 -3.53,7.59 -3.54,7.46 -3.51,7.33 -3.47,7.20 -3.40,7.08 -3.32,6.97 -3.22,6.89 -3.11,6.80 -2.98,6.76 -2.86,6.72 -2.72,6.71 -2.59,6.71 -2.46,6.75 -2.33,6.80 -2.22,6.88 -2.11,6.96 -2.03,7.07 -1.96,7.18 -1.92,7.31 -1.88,7.44 -1.89,7.57 -1.89,7.71 -1.94,7.83 -1.99,7.96 -2.08,8.07 -2.16,8.17 -2.28,8.24 -2.39,8.31 -2.52,8.34 -2.66,8.37 -2.79,8.36 -2.93,8.35 -3.05,8.29 -3.17,8.24 -3.27,8.14 -3.37,8.05 -3.44,7.93 -3.50,7.81 -3.52,7.68 -3.55,7.55 -3.55,7.55 -3.55,7.55 -3.51,5.09 -3.47,2.62 -3.09,0.75 -2.71,-1.12 -1.83,-3.19 -0.94,-5.25 0.54,-7.39 2.04,-9.53 3.59,-10.71 5.14,-11.89 6.77,-12.76 8.39,-13.63 9.98,-13.85 11.56,-14.08 12.22,-13.53 12.87,-12.99 13.08,-12.20 13.29,-11.41 13.57,-9.94 13.85,-8.46 13.75,-7.69 13.65,-6.92 13.52,-5.69 13.39,-4.47 13.16,-3.78 12.93,-3.09 12.50,-1.85 12.08,-0.61 11.18,0.90 10.28,2.42 9.45,3.31 8.61,4.21 7.93,4.99 7.25,5.77 6.70,6.19 6.15,6.61 5.42,7.17 4.70,7.73 3.76,8.58 2.81,9.44 2.06,9.56 1.31,9.68 0.76,9.45 0.20,9.22 -0.30,8.47 -0.82,7.73 -1.29,6.80 -1.77,5.88 -1.96,5.20 -2.14,4.52 -2.01,3.71 -1.88,2.90 -1.74,2.35 -1.60,1.81 -1.41,0.75 -1.23,-0.30 -1.17,-0.45 -1.12,-0.59 -1.03,-0.72 -0.94,-0.84 -0.83,-0.94 -0.71,-1.05 -0.58,-1.12 -0.44,-1.19 -0.29,-1.22 -0.14,-1.26 0.00,-1.26 0.15,-1.26 0.30,-1.22 0.45,-1.18 0.59,-1.11 0.72,-1.04 0.84,-0.94 0.95,-0.84 1.04,-0.71 1.12,-0.58 1.18,-0.44 1.23,-0.30 1.25,-0.14 1.27,0.00 1.25,0.15 1.23,0.30 1.23,0.30 L 1.23,0.30 Z"></path></g><g transform="translate(520.6135582349006 241.98364840805925) rotate(25.54466894453413 -20.065981923689307 20.669293708958733)" stroke="none"><path fill="#d3d3d3" d="M 0.42,0.85 Q 0.42,0.85 -0.80,1.42 -2.03,1.99 -2.42,2.37 -2.80,2.74 -3.11,3.69 -3.42,4.63 -3.53,5.26 -3.65,5.90 -3.92,6.86 -4.19,7.83 -4.31,8.86 -4.44,9.90 -4.44,10.54 -4.44,11.18 -4.76,12.79 -5.08,14.41 -5.27,15.28 -5.47,16.16 -5.58,17.48 -5.68,18.80 -5.74,20.16 -5.80,21.52 -5.78,22.28 -5.75,23.03 -6.05,24.88 -6.35,26.73 -6.57,27.76 -6.79,28.80 -7.15,30.46 -7.51,32.11 -7.62,32.89 -7.72,33.68 -8.17,34.93 -8.61,36.19 -8.84,36.84 -9.07,37.49 -9.66,38.28 -10.25,39.06 -10.58,39.51 -10.91,39.95 -12.73,40.55 -14.54,41.14 -15.59,41.41 -16.64,41.69 -18.43,41.98 -20.22,42.27 -21.60,42.38 -22.98,42.50 -23.74,42.59 -24.50,42.69 -25.99,42.24 -27.49,41.79 -29.33,40.88 -31.17,39.98 -33.36,39.18 -35.56,38.38 -37.85,37.69 -40.15,37.01 -40.27,36.98 -40.40,36.96 -40.51,36.90 -40.63,36.83 -40.71,36.74 -40.80,36.64 -40.85,36.52 -40.90,36.40 -40.92,36.27 -40.93,36.14 -40.90,36.02 -40.87,35.89 -40.80,35.78 -40.73,35.67 -40.63,35.59 -40.52,35.51 -40.40,35.46 -40.28,35.42 -40.15,35.41 -40.02,35.41 -39.90,35.45 -39.77,35.48 -39.67,35.56 -39.56,35.63 -39.49,35.74 -39.41,35.84 -39.37,35.97 -39.33,36.09 -39.34,36.22 -39.34,36.35 -39.38,36.47 -39.43,36.60 -39.51,36.70 -39.59,36.80 -39.70,36.87 -39.81,36.94 -39.93,36.97 -40.06,37.00 -40.19,36.99 -40.32,36.98 -40.44,36.93 -40.56,36.88 -40.65,36.80 -40.75,36.71 -40.81,36.60 -40.88,36.48 -40.90,36.36 -40.93,36.23 -40.91,36.10 -40.89,35.97 -40.84,35.86 -40.78,35.74 -40.69,35.65 -40.60,35.55 -40.48,35.50 -40.37,35.44 -40.24,35.42 -40.11,35.40 -40.11,35.40 -40.11,35.40 -37.59,36.20 -35.07,37.01 -32.79,37.81 -30.51,38.62 -28.77,39.45 -27.03,40.28 -25.80,40.65 -24.58,41.02 -23.85,41.01 -23.12,41.00 -21.81,40.86 -20.49,40.71 -18.80,40.40 -17.11,40.08 -16.10,39.75 -15.09,39.42 -13.37,38.68 -11.66,37.95 -11.17,37.36 -10.67,36.77 -10.37,36.23 -10.08,35.69 -9.71,34.53 -9.33,33.38 -9.15,32.59 -8.96,31.80 -8.63,30.15 -8.30,28.51 -8.12,27.50 -7.94,26.49 -7.70,24.74 -7.47,23.00 -7.41,22.24 -7.36,21.48 -7.34,20.09 -7.33,18.70 -7.26,17.22 -7.19,15.74 -6.98,14.93 -6.76,14.11 -6.52,12.58 -6.29,11.05 -6.20,10.40 -6.11,9.75 -6.02,8.57 -5.94,7.39 -5.72,6.41 -5.50,5.43 -5.28,4.75 -5.07,4.06 -4.59,2.73 -4.11,1.40 -3.47,0.92 -2.82,0.43 -1.62,-0.21 -0.42,-0.85 -0.31,-0.89 -0.21,-0.93 -0.09,-0.94 0.01,-0.95 0.13,-0.93 0.24,-0.92 0.35,-0.88 0.46,-0.83 0.55,-0.76 0.64,-0.70 0.72,-0.61 0.79,-0.52 0.84,-0.42 0.90,-0.32 0.92,-0.20 0.95,-0.09 0.94,0.01 0.94,0.13 0.91,0.24 0.88,0.35 0.83,0.45 0.77,0.55 0.69,0.64 0.61,0.72 0.52,0.79 0.42,0.85 0.42,0.85 L 0.42,0.85 Z"></path></g><g transform="translate(532.2930824419389 216.96249189568198) rotate(25.54466894453413 -26.2519090334425 9.3543701841094)" stroke="none"><path fill="#d3d3d3" d="M 0,-1.11 Q 0,-1.11 0.43,-1.14 0.86,-1.17 1.00,-1.15 1.14,-1.14 1.28,-1.09 1.41,-1.04 1.53,-0.96 1.64,-0.88 1.74,-0.77 1.83,-0.66 1.90,-0.54 1.96,-0.41 2.00,-0.27 2.03,-0.14 2.03,0.00 2.03,0.14 2.00,0.27 1.96,0.41 1.90,0.54 1.83,0.66 1.74,0.77 1.64,0.88 1.53,0.96 1.41,1.04 1.28,1.09 1.14,1.14 1.00,1.15 0.86,1.17 0.36,0.87 -0.14,0.58 -0.76,0.19 -1.38,-0.18 -2.28,-0.18 -3.18,-0.17 -4.14,0.12 -5.11,0.43 -6.28,1.27 -7.45,2.10 -8.56,3.28 -9.68,4.45 -10.48,5.93 -11.28,7.40 -11.72,8.70 -12.16,9.99 -12.41,10.77 -12.66,11.55 -12.88,12.06 -13.10,12.58 -13.78,13.05 -14.45,13.52 -15.09,13.78 -15.72,14.04 -16.83,14.24 -17.93,14.44 -19.38,14.38 -20.82,14.33 -22.12,14.28 -23.42,14.23 -24.45,14.12 -25.47,14.02 -26.70,14.03 -27.93,14.05 -30.56,14.13 -33.19,14.21 -36.22,14.33 -39.24,14.44 -41.02,14.65 -42.80,14.87 -43.96,15.12 -45.13,15.38 -46.02,15.74 -46.91,16.10 -47.82,16.52 -48.72,16.93 -49.52,17.38 -50.32,17.82 -51.00,18.22 -51.68,18.62 -52.60,19.63 -53.52,20.64 -53.60,20.76 -53.69,20.87 -53.82,20.95 -53.94,21.04 -54.08,21.07 -54.22,21.11 -54.37,21.10 -54.51,21.09 -54.65,21.04 -54.78,20.98 -54.89,20.89 -55.00,20.79 -55.08,20.66 -55.15,20.54 -55.18,20.40 -55.21,20.25 -55.19,20.11 -55.18,19.96 -55.11,19.83 -55.05,19.70 -54.95,19.59 -54.85,19.49 -54.72,19.42 -54.59,19.35 -54.44,19.33 -54.30,19.31 -54.16,19.33 -54.01,19.36 -53.88,19.43 -53.76,19.50 -53.66,19.61 -53.56,19.71 -53.50,19.85 -53.44,19.98 -53.42,20.13 -53.41,20.27 -53.44,20.41 -53.47,20.56 -53.55,20.68 -53.63,20.80 -53.74,20.90 -53.85,20.99 -53.99,21.04 -54.12,21.10 -54.27,21.10 -54.42,21.11 -54.56,21.07 -54.70,21.03 -54.82,20.94 -54.94,20.86 -55.02,20.74 -55.11,20.63 -55.16,20.49 -55.20,20.35 -55.20,20.20 -55.20,20.06 -55.15,19.92 -55.10,19.78 -55.10,19.78 -55.10,19.78 -53.78,18.45 -52.46,17.12 -51.75,16.80 -51.03,16.48 -50.18,16.04 -49.32,15.61 -48.39,15.19 -47.45,14.76 -46.45,14.38 -45.45,13.99 -44.22,13.70 -42.98,13.41 -41.14,13.17 -39.31,12.92 -36.28,12.77 -33.26,12.61 -30.63,12.48 -28.00,12.34 -26.66,12.26 -25.32,12.17 -24.38,12.23 -23.43,12.29 -22.14,12.22 -20.85,12.16 -19.48,12.07 -18.10,11.97 -17.56,11.96 -17.02,11.94 -16.20,11.80 -15.38,11.66 -14.83,11.31 -14.28,10.96 -13.98,10.23 -13.68,9.50 -13.24,8.06 -12.79,6.61 -11.92,4.92 -11.06,3.23 -9.87,1.85 -8.68,0.48 -7.31,-0.61 -5.93,-1.70 -4.56,-2.25 -3.20,-2.80 -2.41,-2.79 -1.61,-2.78 -0.90,-2.56 -0.18,-2.35 0.34,-1.76 0.86,-1.17 1.00,-1.15 1.14,-1.14 1.28,-1.09 1.41,-1.04 1.53,-0.96 1.64,-0.88 1.74,-0.77 1.83,-0.66 1.90,-0.54 1.96,-0.41 2.00,-0.27 2.03,-0.14 2.03,-0.00 2.03,0.14 2.00,0.27 1.96,0.41 1.90,0.54 1.83,0.66 1.74,0.77 1.64,0.88 1.53,0.96 1.41,1.04 1.28,1.09 1.14,1.14 1.00,1.15 0.86,1.17 0.43,1.14 0,1.11 -0.13,1.09 -0.26,1.07 -0.39,1.03 -0.51,0.98 -0.62,0.90 -0.73,0.83 -0.82,0.73 -0.91,0.63 -0.97,0.51 -1.03,0.39 -1.07,0.26 -1.10,0.13 -1.10,-0.00 -1.10,-0.13 -1.07,-0.26 -1.03,-0.39 -0.97,-0.51 -0.91,-0.63 -0.82,-0.73 -0.73,-0.83 -0.62,-0.90 -0.51,-0.98 -0.39,-1.03 -0.26,-1.07 -0.13,-1.09 0.00,-1.11 0.00,-1.11 L 0,-1.11 Z"></path></g><g transform="translate(481.45350249568946 211.6291554108152) rotate(25.54466894453413 -28.213302219725346 1.65932163405202)" stroke="none"><path fill="#d3d3d3" d="M 0,1.29 Q 0,1.29 -0.69,1.28 -1.38,1.28 -2.11,1.28 -2.84,1.27 -3.66,1.17 -4.47,1.07 -5.17,1.07 -5.87,1.06 -6.52,1.32 -7.16,1.59 -8.11,1.90 -9.07,2.21 -9.63,2.44 -10.19,2.66 -11.44,2.98 -12.68,3.29 -13.70,3.44 -14.72,3.58 -18.15,3.60 -21.58,3.61 -25.46,3.42 -29.34,3.23 -32.48,2.87 -35.61,2.52 -37.46,2.27 -39.31,2.02 -40.37,1.81 -41.43,1.61 -42.69,1.25 -43.94,0.90 -44.55,0.81 -45.16,0.72 -46.22,0.37 -47.27,0.02 -48.72,-0.29 -50.16,-0.61 -51.27,-0.75 -52.39,-0.89 -53.05,-0.89 -53.70,-0.89 -54.28,-0.61 -54.85,-0.34 -55.01,0.26 -55.18,0.87 -54.08,2.60 -52.99,4.34 -52.89,4.53 -52.80,4.71 -52.76,4.91 -52.73,5.12 -52.76,5.32 -52.79,5.53 -52.89,5.71 -52.98,5.89 -53.13,6.04 -53.28,6.18 -53.47,6.27 -53.66,6.36 -53.86,6.38 -54.07,6.40 -54.27,6.36 -54.48,6.32 -54.65,6.21 -54.83,6.11 -54.97,5.95 -55.10,5.79 -55.18,5.60 -55.26,5.41 -55.27,5.20 -55.28,4.99 -55.23,4.79 -55.17,4.59 -55.06,4.42 -54.94,4.25 -54.78,4.12 -54.61,4.00 -54.42,3.93 -54.22,3.86 -54.01,3.86 -53.81,3.86 -53.61,3.92 -53.41,3.99 -53.25,4.11 -53.08,4.24 -52.96,4.41 -52.85,4.58 -52.79,4.78 -52.73,4.98 -52.74,5.19 -52.75,5.39 -52.83,5.59 -52.91,5.78 -53.04,5.94 -53.17,6.10 -53.35,6.20 -53.53,6.31 -53.73,6.36 -53.93,6.40 -54.14,6.38 -54.34,6.36 -54.53,6.27 -54.72,6.19 -54.87,6.05 -55.02,5.90 -55.02,5.90 -55.02,5.91 -56.28,3.27 -57.53,0.63 -57.27,0.00 -57.01,-0.62 -56.60,-1.24 -56.20,-1.86 -55.52,-2.25 -54.84,-2.65 -54.20,-2.60 -53.56,-2.56 -52.89,-2.45 -52.22,-2.33 -51.04,-2.21 -49.85,-2.09 -48.33,-1.79 -46.81,-1.48 -45.79,-1.19 -44.77,-0.90 -44.16,-0.70 -43.55,-0.50 -42.36,-0.19 -41.17,0.12 -40.14,0.28 -39.12,0.44 -37.28,0.64 -35.44,0.84 -32.36,1.12 -29.27,1.41 -25.45,1.51 -21.63,1.60 -18.37,1.48 -15.11,1.36 -14.27,1.17 -13.43,0.99 -12.35,0.54 -11.26,0.09 -10.42,-0.26 -9.58,-0.62 -8.88,-0.81 -8.19,-0.99 -7.55,-1.23 -6.91,-1.47 -6.34,-1.54 -5.77,-1.62 -4.98,-1.52 -4.18,-1.42 -3.51,-1.34 -2.84,-1.27 -2.11,-1.28 -1.38,-1.28 -0.69,-1.28 0,-1.29 0.15,-1.27 0.30,-1.25 0.45,-1.19 0.59,-1.14 0.72,-1.05 0.85,-0.96 0.95,-0.84 1.06,-0.73 1.13,-0.59 1.20,-0.45 1.24,-0.30 1.28,-0.15 1.28,0.00 1.28,0.15 1.24,0.30 1.20,0.45 1.13,0.59 1.06,0.73 0.95,0.84 0.85,0.96 0.72,1.05 0.59,1.14 0.45,1.19 0.30,1.25 0.15,1.27 -0.00,1.29 -0.00,1.29 L 0,1.29 Z"></path></g><g transform="translate(418.3508921294267 218.19874184820674) rotate(25.54466894453413 33.79544433174586 20.819903167539678)" stroke="none"><path fill="#d3d3d3" d="M 0.88,0.61 Q 0.88,0.61 0.23,1.45 -0.42,2.28 -0.84,3.16 -1.26,4.04 -1.76,5.50 -2.26,6.96 -2.51,8.18 -2.76,9.40 -2.92,10.23 -3.09,11.07 -3.11,11.83 -3.13,12.60 -2.56,13.08 -1.99,13.56 -1.40,13.73 -0.80,13.90 -0.21,13.98 0.38,14.06 0.96,14.08 1.53,14.09 2.71,13.85 3.89,13.61 4.95,13.52 6.01,13.43 6.62,13.42 7.24,13.41 8.10,13.45 8.97,13.48 10.21,13.56 11.45,13.65 12.77,13.98 14.10,14.31 14.77,14.40 15.44,14.48 16.17,14.70 16.91,14.92 17.73,15.42 18.54,15.92 19.48,16.81 20.42,17.70 21.24,18.62 22.06,19.53 22.74,20.37 23.43,21.20 24.00,21.77 24.56,22.35 25.15,22.95 25.74,23.56 26.12,24.11 26.50,24.67 26.76,25.26 27.02,25.84 27.17,26.45 27.33,27.06 27.45,27.81 27.58,28.56 27.84,29.14 28.10,29.72 28.55,30.14 28.99,30.57 29.67,30.85 30.36,31.14 31.03,31.51 31.71,31.88 33.39,32.81 35.07,33.75 35.76,34.15 36.44,34.55 38.17,35.26 39.90,35.97 40.99,36.40 42.09,36.82 46.32,37.70 50.55,38.59 53.39,39.07 56.23,39.54 60.63,39.93 65.03,40.31 68.45,40.60 71.87,40.89 71.99,40.92 72.10,40.94 72.21,41.01 72.31,41.07 72.39,41.17 72.46,41.26 72.50,41.38 72.55,41.49 72.55,41.61 72.55,41.73 72.52,41.85 72.48,41.97 72.41,42.07 72.34,42.16 72.24,42.24 72.15,42.31 72.03,42.34 71.91,42.38 71.79,42.38 71.67,42.37 71.56,42.33 71.44,42.29 71.35,42.21 71.25,42.14 71.19,42.04 71.12,41.93 71.09,41.82 71.06,41.70 71.07,41.58 71.08,41.46 71.13,41.34 71.18,41.23 71.26,41.14 71.34,41.05 71.44,40.99 71.55,40.93 71.67,40.91 71.79,40.88 71.91,40.90 72.03,40.92 72.14,40.97 72.25,41.02 72.33,41.11 72.42,41.20 72.47,41.30 72.53,41.41 72.54,41.53 72.56,41.65 72.54,41.77 72.51,41.89 72.46,42.00 72.40,42.10 72.31,42.18 72.22,42.27 72.10,42.31 71.99,42.36 71.87,42.37 71.75,42.38 71.75,42.38 71.75,42.38 68.32,42.13 64.90,41.88 60.44,41.53 55.98,41.19 53.09,40.77 50.19,40.35 45.83,39.52 41.46,38.70 40.30,38.37 39.13,38.05 37.17,37.40 35.21,36.75 34.56,36.40 33.92,36.05 32.19,35.29 30.46,34.54 29.66,34.04 28.86,33.55 28.13,33.16 27.41,32.76 27.03,32.34 26.65,31.93 26.03,31.02 25.41,30.11 25.27,29.55 25.14,29.00 24.96,27.87 24.78,26.75 24.56,26.18 24.35,25.61 24.14,25.12 23.94,24.63 23.60,24.09 23.27,23.55 22.72,22.92 22.18,22.29 21.48,21.53 20.77,20.76 19.95,19.97 19.13,19.17 18.26,18.47 17.38,17.77 16.78,17.38 16.19,17.00 15.64,16.78 15.10,16.57 14.39,16.43 13.67,16.29 12.56,16.10 11.44,15.92 10.21,16.00 8.98,16.09 8.13,16.13 7.27,16.17 6.68,16.18 6.09,16.18 5.18,16.22 4.26,16.25 3.35,16.36 2.44,16.48 1.89,16.55 1.35,16.61 0.67,16.48 -0.00,16.35 -0.77,16.20 -1.55,16.05 -2.55,15.66 -3.55,15.27 -4.11,14.67 -4.66,14.07 -4.93,13.35 -5.21,12.63 -5.01,11.65 -4.81,10.67 -4.60,9.89 -4.40,9.11 -4.18,7.75 -3.97,6.38 -3.66,5.37 -3.36,4.35 -3.12,3.84 -2.88,3.32 -2.44,2.25 -2.00,1.18 -1.44,0.28 -0.88,-0.61 -0.79,-0.71 -0.70,-0.81 -0.60,-0.88 -0.49,-0.95 -0.37,-1.00 -0.25,-1.04 -0.12,-1.06 0.00,-1.07 0.13,-1.06 0.26,-1.04 0.38,-0.99 0.50,-0.94 0.61,-0.87 0.71,-0.80 0.80,-0.70 0.88,-0.60 0.94,-0.49 1.00,-0.37 1.03,-0.24 1.06,-0.12 1.06,0.00 1.06,0.13 1.03,0.26 1.00,0.38 0.94,0.50 0.88,0.61 0.88,0.61 L 0.88,0.61 Z"></path></g><g transform="translate(431.0048623088312 230.88565321496435) rotate(25.54466894453413 -20.21659138227024 8.599583515664037)" stroke="none"><path fill="#d3d3d3" d="M -0.99,0 Q -0.99,0 -1.03,-0.43 -1.07,-0.86 -1.61,-1.68 -2.15,-2.49 -2.71,-3.48 -3.28,-4.46 -3.77,-5.18 -4.27,-5.90 -5.16,-6.66 -6.06,-7.42 -6.82,-7.89 -7.59,-8.36 -9.01,-8.56 -10.43,-8.76 -14.09,-8.79 -17.74,-8.82 -22.49,-8.41 -27.25,-8.01 -30.35,-7.42 -33.44,-6.84 -34.98,-5.38 -36.52,-3.91 -37.42,-1.64 -38.33,0.62 -38.47,3.27 -38.60,5.91 -37.90,8.81 -37.20,11.70 -35.81,14.28 -34.41,16.86 -32.45,19.24 -30.49,21.62 -28.58,23.03 -26.67,24.44 -24.81,25.02 -22.94,25.60 -20.41,25.33 -17.88,25.06 -15.45,24.02 -13.03,22.99 -11.31,21.95 -9.58,20.91 -8.54,19.90 -7.51,18.89 -6.90,18.12 -6.30,17.35 -5.81,16.14 -5.33,14.93 -4.85,13.12 -4.38,11.31 -4.09,10.34 -3.81,9.36 -3.52,8.42 -3.24,7.48 -2.67,5.21 -2.11,2.94 -2.05,0.04 -1.99,-2.85 -2.59,-5.23 -3.19,-7.60 -3.21,-7.73 -3.22,-7.86 -3.20,-7.99 -3.17,-8.12 -3.11,-8.24 -3.04,-8.35 -2.94,-8.44 -2.85,-8.53 -2.72,-8.58 -2.60,-8.63 -2.47,-8.64 -2.34,-8.65 -2.21,-8.62 -2.09,-8.59 -1.97,-8.52 -1.86,-8.44 -1.78,-8.34 -1.70,-8.24 -1.65,-8.11 -1.61,-7.99 -1.61,-7.86 -1.60,-7.73 -1.64,-7.60 -1.68,-7.48 -1.76,-7.37 -1.84,-7.26 -1.94,-7.19 -2.05,-7.11 -2.18,-7.07 -2.30,-7.03 -2.43,-7.04 -2.56,-7.04 -2.69,-7.09 -2.81,-7.13 -2.91,-7.22 -3.02,-7.30 -3.09,-7.41 -3.16,-7.52 -3.19,-7.65 -3.22,-7.78 -3.21,-7.91 -3.20,-8.04 -3.15,-8.16 -3.09,-8.28 -3.01,-8.38 -2.92,-8.48 -2.80,-8.54 -2.69,-8.60 -2.56,-8.63 -2.43,-8.65 -2.30,-8.64 -2.17,-8.62 -2.05,-8.56 -1.93,-8.50 -1.84,-8.41 -1.75,-8.31 -1.69,-8.19 -1.63,-8.08 -1.63,-8.08 -1.63,-8.08 -1.12,-5.45 -0.61,-2.83 -0.67,0.21 -0.74,3.26 -1.30,5.59 -1.86,7.93 -2.17,8.84 -2.48,9.76 -2.78,10.71 -3.09,11.65 -3.58,13.54 -4.08,15.44 -4.66,16.81 -5.24,18.19 -5.91,19.01 -6.59,19.83 -7.74,20.94 -8.90,22.04 -10.71,23.12 -12.51,24.20 -15.12,25.29 -17.73,26.38 -20.52,26.62 -23.30,26.86 -25.37,26.19 -27.44,25.52 -29.48,24.00 -31.52,22.48 -33.56,19.99 -35.59,17.51 -37.06,14.77 -38.52,12.03 -39.25,8.94 -39.98,5.85 -39.81,2.98 -39.64,0.12 -38.58,-2.40 -37.53,-4.92 -35.68,-6.59 -33.84,-8.25 -30.61,-8.90 -27.39,-9.56 -22.56,-10.01 -17.74,-10.47 -13.97,-10.49 -10.20,-10.51 -8.44,-10.29 -6.69,-10.06 -5.69,-9.53 -4.69,-9.00 -3.68,-8.01 -2.67,-7.01 -2.15,-6.26 -1.63,-5.52 -1.02,-4.68 -0.42,-3.85 0.25,-2.94 0.92,-2.02 1.00,-1.45 1.07,-0.87 1.03,-0.43 0.99,0 0.98,0.11 0.96,0.23 0.92,0.35 0.88,0.46 0.81,0.56 0.74,0.66 0.65,0.74 0.56,0.82 0.45,0.87 0.35,0.93 0.23,0.96 0.12,0.98 -0.00,0.98 -0.12,0.98 -0.23,0.96 -0.35,0.93 -0.45,0.87 -0.56,0.82 -0.65,0.74 -0.74,0.66 -0.81,0.56 -0.88,0.46 -0.92,0.35 -0.96,0.23 -0.98,0.11 -0.99,-0.00 -0.99,-0.00 L -0.99,0 Z"></path></g><g transform="translate(442.35578424312735 229.93917622532126) rotate(25.54466894453413 -4.224047921481034 2.715770589895129)" stroke="none"><path fill="#d3d3d3" d="M 0.24,1.11 Q 0.24,1.11 -0.53,1.28 -1.31,1.45 -1.87,1.62 -2.43,1.79 -3.08,2.14 -3.74,2.48 -4.52,3.14 -5.30,3.80 -6.47,4.98 -7.64,6.16 -7.78,6.27 -7.92,6.38 -8.08,6.43 -8.25,6.49 -8.42,6.50 -8.60,6.50 -8.77,6.45 -8.93,6.39 -9.08,6.29 -9.22,6.19 -9.32,6.04 -9.42,5.90 -9.47,5.73 -9.52,5.56 -9.51,5.39 -9.51,5.21 -9.44,5.05 -9.38,4.88 -9.27,4.75 -9.16,4.61 -9.01,4.52 -8.86,4.43 -8.69,4.39 -8.52,4.34 -8.35,4.36 -8.17,4.38 -8.01,4.45 -7.85,4.52 -7.72,4.64 -7.59,4.75 -7.51,4.91 -7.42,5.06 -7.39,5.23 -7.36,5.41 -7.38,5.58 -7.41,5.75 -7.49,5.91 -7.57,6.07 -7.69,6.19 -7.82,6.31 -7.98,6.39 -8.13,6.47 -8.31,6.49 -8.48,6.51 -8.65,6.48 -8.83,6.44 -8.98,6.35 -9.13,6.27 -9.25,6.13 -9.36,6.00 -9.43,5.84 -9.50,5.68 -9.51,5.50 -9.52,5.33 -9.48,5.16 -9.44,4.99 -9.34,4.84 -9.24,4.69 -9.24,4.69 -9.24,4.70 -7.95,3.51 -6.66,2.32 -5.75,1.41 -4.83,0.50 -3.94,0.02 -3.05,-0.46 -2.43,-0.61 -1.80,-0.75 -1.02,-0.93 -0.24,-1.11 -0.11,-1.12 0.02,-1.13 0.16,-1.11 0.29,-1.09 0.42,-1.04 0.55,-0.99 0.66,-0.91 0.77,-0.83 0.86,-0.72 0.95,-0.62 1.01,-0.50 1.07,-0.37 1.10,-0.24 1.13,-0.11 1.12,0.02 1.12,0.16 1.09,0.29 1.05,0.42 0.98,0.54 0.92,0.66 0.82,0.76 0.73,0.86 0.62,0.94 0.50,1.01 0.37,1.06 0.24,1.11 0.24,1.11 L 0.24,1.11 Z"></path></g><g transform="translate(546.2078721994417 240.30689661340193) rotate(25.54466894453413 0.3020886049322016 0)" stroke="none"><path fill="#d3d3d3" d="M 0.60,-1.19 Q 0.60,-1.19 0.79,-1.16 0.98,-1.13 1.15,-1.04 1.33,-0.95 1.46,-0.81 1.59,-0.67 1.67,-0.49 1.76,-0.32 1.78,-0.12 1.80,0.06 1.76,0.25 1.71,0.44 1.61,0.61 1.51,0.77 1.37,0.90 1.22,1.02 1.04,1.09 0.86,1.17 0.66,1.18 0.47,1.19 0.28,1.14 0.10,1.08 -0.06,0.97 -0.22,0.87 -0.33,0.71 -0.45,0.56 -0.51,0.37 -0.57,0.19 -0.57,-0.00 -0.57,-0.19 -0.51,-0.37 -0.45,-0.56 -0.33,-0.71 -0.22,-0.87 -0.06,-0.98 0.10,-1.08 0.28,-1.14 0.47,-1.19 0.66,-1.18 0.86,-1.17 1.04,-1.09 1.22,-1.02 1.37,-0.90 1.51,-0.77 1.61,-0.61 1.71,-0.44 1.76,-0.25 1.80,-0.06 1.78,0.12 1.76,0.32 1.67,0.49 1.59,0.67 1.46,0.81 1.32,0.95 1.15,1.04 0.98,1.13 0.79,1.16 0.60,1.19 0.60,1.19 0.60,1.19 0.45,1.25 0.29,1.30 0.13,1.32 -0.02,1.34 -0.18,1.32 -0.34,1.29 -0.49,1.23 -0.64,1.17 -0.77,1.08 -0.90,0.99 -1.01,0.86 -1.11,0.74 -1.19,0.59 -1.26,0.45 -1.29,0.29 -1.33,0.13 -1.33,-0.02 -1.33,-0.18 -1.28,-0.34 -1.24,-0.49 -1.17,-0.63 -1.09,-0.78 -0.98,-0.90 -0.87,-1.02 -0.73,-1.11 -0.60,-1.19 0.00,-1.19 L 0.60,-1.19 Z"></path></g><g transform="translate(548.0318402176774 230.73373208886323) rotate(25.54466894453413 -20.970943206830427 -2.5642871803684955)" stroke="none"><path fill="#d3d3d3" d="M -0.77,0.46 Q -0.77,0.46 -1.27,-0.41 -1.77,-1.29 -2.45,-1.91 -3.12,-2.53 -5.12,-3.54 -7.12,-4.56 -8.29,-5.11 -9.45,-5.66 -11.42,-6.51 -13.38,-7.36 -14.71,-7.90 -16.05,-8.44 -17.38,-8.48 -18.70,-8.53 -22.16,-8.47 -25.62,-8.42 -27.53,-8.40 -29.44,-8.38 -32.04,-8.12 -34.64,-7.86 -36.50,-6.92 -38.37,-5.99 -39.20,-4.88 -40.02,-3.78 -40.37,-2.68 -40.71,-1.58 -40.69,-0.21 -40.67,1.15 -40.57,2.08 -40.46,3.02 -40.21,3.57 -39.96,4.12 -39.95,4.23 -39.93,4.33 -39.94,4.44 -39.96,4.54 -39.99,4.64 -40.03,4.74 -40.09,4.83 -40.15,4.92 -40.23,4.99 -40.31,5.06 -40.40,5.11 -40.50,5.15 -40.60,5.18 -40.70,5.21 -40.81,5.21 -40.91,5.21 -41.01,5.18 -41.12,5.16 -41.21,5.11 -41.30,5.06 -41.38,4.99 -41.46,4.92 -41.52,4.83 -41.58,4.75 -41.62,4.65 -41.66,4.55 -41.45,4.03 -41.25,3.50 -40.86,2.87 -40.47,2.24 -38.87,0.09 -37.27,-2.05 -37.16,-2.16 -37.06,-2.27 -36.92,-2.34 -36.78,-2.40 -36.63,-2.42 -36.48,-2.45 -36.33,-2.42 -36.18,-2.39 -36.05,-2.31 -35.92,-2.24 -35.81,-2.13 -35.71,-2.01 -35.65,-1.87 -35.59,-1.73 -35.58,-1.58 -35.57,-1.43 -35.60,-1.28 -35.64,-1.13 -35.72,-1.00 -35.80,-0.88 -35.92,-0.78 -36.04,-0.68 -36.18,-0.63 -36.33,-0.58 -36.48,-0.57 -36.63,-0.57 -36.78,-0.61 -36.92,-0.66 -37.05,-0.75 -37.17,-0.84 -37.26,-0.96 -37.35,-1.08 -37.39,-1.23 -37.44,-1.38 -37.43,-1.53 -37.43,-1.68 -37.38,-1.82 -37.33,-1.97 -37.23,-2.09 -37.14,-2.20 -37.01,-2.29 -36.88,-2.37 -36.73,-2.41 -36.58,-2.44 -36.43,-2.43 -36.28,-2.42 -36.14,-2.36 -36.00,-2.30 -35.89,-2.20 -35.77,-2.10 -35.70,-1.96 -35.62,-1.83 -35.59,-1.68 -35.56,-1.53 -35.58,-1.38 -35.60,-1.23 -35.67,-1.09 -35.74,-0.96 -35.74,-0.96 -35.74,-0.96 -37.32,1.33 -38.91,3.63 -39.43,3.88 -39.96,4.12 -39.95,4.23 -39.93,4.33 -39.94,4.44 -39.96,4.54 -39.99,4.64 -40.03,4.74 -40.09,4.83 -40.15,4.92 -40.23,4.99 -40.31,5.06 -40.40,5.11 -40.50,5.15 -40.60,5.18 -40.70,5.21 -40.81,5.21 -40.91,5.21 -41.01,5.18 -41.12,5.16 -41.21,5.11 -41.30,5.06 -41.38,4.99 -41.46,4.92 -41.52,4.83 -41.58,4.75 -41.62,4.65 -41.66,4.55 -41.69,4.42 -41.72,4.29 -41.79,3.72 -41.86,3.15 -41.94,2.15 -42.01,1.15 -42.00,-0.41 -41.99,-1.97 -41.54,-3.28 -41.10,-4.58 -40.06,-5.88 -39.02,-7.17 -36.92,-8.20 -34.81,-9.23 -32.14,-9.51 -29.47,-9.79 -27.56,-9.83 -25.65,-9.87 -22.15,-9.95 -18.65,-10.02 -17.08,-9.97 -15.52,-9.91 -14.13,-9.40 -12.74,-8.90 -10.74,-8.10 -8.74,-7.30 -7.53,-6.83 -6.31,-6.35 -4.13,-5.29 -1.95,-4.22 -1.12,-3.20 -0.30,-2.17 0.23,-1.32 0.77,-0.46 0.81,-0.36 0.86,-0.26 0.88,-0.15 0.89,-0.05 0.89,0.05 0.88,0.16 0.85,0.26 0.82,0.37 0.76,0.46 0.70,0.55 0.63,0.63 0.55,0.71 0.45,0.76 0.36,0.82 0.26,0.85 0.15,0.88 0.05,0.89 -0.05,0.89 -0.16,0.87 -0.27,0.85 -0.36,0.81 -0.46,0.76 -0.55,0.70 -0.63,0.63 -0.70,0.54 -0.77,0.46 -0.77,0.46 L -0.77,0.46 Z"></path></g><g transform="translate(557.486160504065 244.9362803075278) rotate(25.54466894453413 7.8456750613396835 -12.522412519983206)" stroke="none"><path fill="#d3d3d3" d="M -0.63,0.75 Q -0.63,0.75 -1.16,0.34 -1.70,-0.06 -2.37,-0.71 -3.05,-1.36 -3.83,-2.47 -4.62,-3.59 -4.91,-4.06 -5.19,-4.53 -5.38,-6.67 -5.57,-8.81 -5.60,-10.09 -5.63,-11.37 -5.19,-13.32 -4.74,-15.27 -4.48,-16.19 -4.21,-17.10 -3.21,-18.22 -2.20,-19.33 0.37,-20.68 2.94,-22.02 6.23,-23.01 9.51,-24.00 12.14,-24.50 14.76,-25.00 16.22,-24.86 17.68,-24.73 19.38,-23.79 21.07,-22.86 21.14,-22.75 21.21,-22.65 21.25,-22.53 21.28,-22.41 21.28,-22.28 21.27,-22.16 21.22,-22.04 21.18,-21.93 21.10,-21.83 21.02,-21.74 20.91,-21.67 20.80,-21.61 20.68,-21.58 20.56,-21.55 20.43,-21.56 20.31,-21.58 20.19,-21.63 20.08,-21.68 19.99,-21.77 19.90,-21.85 19.84,-21.96 19.78,-22.07 19.76,-22.20 19.74,-22.32 19.76,-22.45 19.78,-22.57 19.84,-22.68 19.90,-22.79 19.99,-22.88 20.08,-22.96 20.19,-23.02 20.30,-23.07 20.43,-23.08 20.55,-23.10 20.68,-23.07 20.80,-23.04 20.91,-22.98 21.01,-22.91 21.09,-22.82 21.18,-22.72 21.22,-22.61 21.27,-22.49 21.28,-22.37 21.28,-22.24 21.25,-22.12 21.22,-22.00 21.15,-21.90 21.08,-21.79 20.98,-21.72 20.88,-21.64 20.76,-21.60 20.64,-21.56 20.52,-21.56 20.39,-21.56 20.27,-21.60 20.15,-21.64 20.05,-21.71 19.95,-21.79 19.95,-21.79 19.95,-21.79 18.74,-22.56 17.52,-23.33 16.27,-23.46 15.02,-23.59 12.48,-23.09 9.94,-22.58 6.80,-21.61 3.65,-20.65 1.31,-19.43 -1.02,-18.21 -1.80,-17.37 -2.57,-16.54 -2.82,-15.72 -3.06,-14.90 -3.42,-13.19 -3.77,-11.47 -3.64,-10.24 -3.51,-9.01 -3.10,-6.85 -2.70,-4.68 -2.17,-3.76 -1.65,-2.84 -1.01,-2.25 -0.37,-1.66 0.12,-1.21 0.63,-0.75 0.71,-0.67 0.79,-0.58 0.85,-0.48 0.91,-0.37 0.94,-0.26 0.97,-0.14 0.97,-0.02 0.98,0.08 0.95,0.20 0.93,0.32 0.87,0.42 0.82,0.53 0.75,0.62 0.67,0.71 0.57,0.78 0.48,0.85 0.37,0.90 0.26,0.94 0.14,0.96 0.02,0.98 -0.08,0.97 -0.20,0.96 -0.31,0.92 -0.43,0.88 -0.53,0.82 -0.63,0.75 -0.63,0.75 L -0.63,0.75 Z"></path></g><g transform="translate(539.0244122392847 258.87652330948595) rotate(25.54466894453413 12.6734653488 18.85848013902941)" stroke="none"><path fill="#d3d3d3" d="M 0.78,-0.17 Q 0.78,-0.17 1.10,1.39 1.43,2.95 1.61,3.80 1.79,4.65 2.08,5.66 2.37,6.66 3.19,9.28 4.00,11.89 5.61,14.85 7.23,17.81 9.59,20.05 11.96,22.30 13.99,23.69 16.02,25.08 17.42,26.04 18.83,27.00 20.18,28.59 21.54,30.19 22.62,31.73 23.71,33.27 24.27,33.98 24.83,34.69 24.74,36.66 24.65,38.64 24.53,38.70 24.42,38.77 24.29,38.79 24.17,38.82 24.04,38.80 23.91,38.79 23.79,38.73 23.67,38.67 23.58,38.58 23.49,38.49 23.43,38.38 23.37,38.26 23.35,38.13 23.33,38.00 23.35,37.87 23.37,37.75 23.44,37.63 23.50,37.52 23.60,37.43 23.69,37.34 23.81,37.29 23.93,37.24 24.06,37.22 24.19,37.21 24.32,37.24 24.44,37.27 24.55,37.34 24.66,37.41 24.75,37.51 24.83,37.61 24.88,37.73 24.92,37.85 24.93,37.98 24.93,38.11 24.90,38.24 24.86,38.36 24.79,38.47 24.71,38.58 24.61,38.65 24.50,38.73 24.38,38.77 24.25,38.81 24.12,38.81 23.99,38.81 23.87,38.76 23.75,38.72 23.64,38.64 23.54,38.56 23.47,38.45 23.40,38.34 23.37,38.22 23.33,38.09 23.34,37.96 23.35,37.83 23.40,37.71 23.45,37.59 23.54,37.49 23.62,37.39 23.62,37.39 23.62,37.39 23.64,36.47 23.65,35.56 23.13,34.80 22.61,34.04 21.56,32.55 20.50,31.05 19.28,29.58 18.05,28.11 16.65,27.17 15.24,26.22 13.12,24.77 10.99,23.32 8.49,20.92 5.98,18.52 4.28,15.43 2.59,12.35 1.74,9.73 0.89,7.12 0.53,6.03 0.18,4.94 0.06,4.11 -0.04,3.28 -0.41,1.73 -0.78,0.17 -0.78,0.07 -0.79,-0.01 -0.78,-0.11 -0.77,-0.20 -0.73,-0.29 -0.69,-0.38 -0.64,-0.46 -0.58,-0.54 -0.51,-0.60 -0.43,-0.66 -0.35,-0.71 -0.26,-0.75 -0.17,-0.77 -0.07,-0.79 0.01,-0.79 0.11,-0.79 0.20,-0.76 0.30,-0.74 0.38,-0.69 0.46,-0.64 0.53,-0.58 0.61,-0.51 0.66,-0.43 0.71,-0.35 0.74,-0.26 0.78,-0.17 0.78,-0.17 L 0.78,-0.17 Z"></path></g><g transform="translate(460.8151927762517 257.2503111338965) rotate(25.54466894453413 15.841499158323096 1.509155545706946)" stroke="none"><path fill="#d3d3d3" d="M -0.36,-0.85 Q -0.36,-0.85 0.22,-1.14 0.82,-1.43 1.92,-2.00 3.02,-2.57 4.26,-3.01 5.51,-3.45 6.21,-3.68 6.90,-3.92 7.90,-4.16 8.89,-4.39 9.50,-4.55 10.12,-4.71 11.85,-4.63 13.59,-4.56 14.54,-4.54 15.49,-4.51 17.20,-4.48 18.90,-4.44 19.85,-4.36 20.80,-4.28 22.35,-3.48 23.90,-2.69 24.80,-2.08 25.70,-1.47 27.19,0.41 28.67,2.31 29.35,3.26 30.04,4.22 31.15,5.29 32.27,6.36 32.35,6.47 32.42,6.58 32.46,6.71 32.50,6.84 32.49,6.97 32.48,7.10 32.44,7.23 32.39,7.35 32.30,7.46 32.22,7.56 32.10,7.63 31.99,7.70 31.86,7.73 31.73,7.76 31.60,7.74 31.47,7.73 31.34,7.68 31.22,7.62 31.13,7.53 31.03,7.44 30.96,7.32 30.90,7.21 30.88,7.08 30.85,6.94 30.87,6.81 30.89,6.68 30.96,6.56 31.02,6.44 31.11,6.35 31.21,6.26 31.33,6.20 31.45,6.14 31.58,6.13 31.71,6.11 31.84,6.14 31.98,6.17 32.09,6.23 32.20,6.30 32.29,6.40 32.38,6.50 32.43,6.63 32.48,6.75 32.49,6.88 32.50,7.02 32.46,7.14 32.43,7.27 32.36,7.38 32.28,7.50 32.18,7.58 32.07,7.66 31.95,7.70 31.82,7.75 31.69,7.75 31.55,7.75 31.43,7.71 31.30,7.67 31.19,7.59 31.09,7.51 31.09,7.51 31.09,7.51 29.98,6.29 28.88,5.06 28.19,4.14 27.51,3.21 26.17,1.50 24.84,-0.21 24.01,-0.74 23.18,-1.28 21.88,-1.95 20.59,-2.61 19.74,-2.71 18.89,-2.81 17.18,-2.79 15.46,-2.77 14.50,-2.78 13.54,-2.79 12.00,-2.80 10.46,-2.81 9.89,-2.75 9.33,-2.70 8.36,-2.42 7.40,-2.15 6.75,-2.01 6.10,-1.88 5.00,-1.43 3.90,-0.99 2.75,-0.29 1.60,0.39 0.98,0.62 0.36,0.85 0.25,0.88 0.15,0.91 0.03,0.91 -0.07,0.92 -0.18,0.90 -0.29,0.87 -0.39,0.83 -0.49,0.78 -0.57,0.71 -0.66,0.64 -0.73,0.55 -0.80,0.46 -0.84,0.36 -0.88,0.25 -0.90,0.14 -0.92,0.03 -0.91,-0.07 -0.90,-0.18 -0.87,-0.28 -0.83,-0.39 -0.77,-0.48 -0.71,-0.58 -0.63,-0.66 -0.55,-0.73 -0.46,-0.79 -0.36,-0.85 -0.36,-0.85 L -0.36,-0.85 Z"></path></g><g transform="translate(452.5622798827376 262.4522047232208) rotate(25.54466894453413 -3.017424350942164 8.59957498931334)" stroke="none"><path fill="#d3d3d3" d="M 0.93,0.41 Q 0.93,0.41 -0.41,3.34 -1.75,6.27 -2.76,9.29 -3.76,12.31 -4.43,14.87 -5.11,17.44 -5.17,17.58 -5.23,17.72 -5.34,17.83 -5.44,17.94 -5.58,18.02 -5.71,18.09 -5.86,18.12 -6.02,18.15 -6.17,18.12 -6.32,18.10 -6.46,18.03 -6.59,17.96 -6.70,17.85 -6.81,17.74 -6.88,17.60 -6.94,17.46 -6.96,17.31 -6.98,17.16 -6.95,17.01 -6.92,16.85 -6.84,16.72 -6.76,16.59 -6.65,16.49 -6.53,16.39 -6.39,16.33 -6.25,16.27 -6.09,16.26 -5.94,16.25 -5.79,16.29 -5.64,16.32 -5.51,16.41 -5.39,16.49 -5.29,16.62 -5.20,16.74 -5.14,16.88 -5.09,17.03 -5.09,17.18 -5.09,17.33 -5.14,17.48 -5.18,17.63 -5.27,17.75 -5.37,17.88 -5.49,17.96 -5.62,18.05 -5.77,18.10 -5.91,18.14 -6.07,18.13 -6.22,18.13 -6.37,18.07 -6.51,18.02 -6.63,17.92 -6.75,17.82 -6.83,17.69 -6.91,17.56 -6.94,17.41 -6.98,17.26 -6.96,17.11 -6.95,16.95 -6.95,16.95 -6.95,16.95 -6.17,14.37 -5.38,11.78 -4.41,8.65 -3.44,5.52 -2.19,2.55 -0.93,-0.41 -0.87,-0.51 -0.80,-0.62 -0.72,-0.71 -0.63,-0.79 -0.53,-0.86 -0.42,-0.92 -0.30,-0.96 -0.19,-1.00 -0.06,-1.01 0.05,-1.02 0.17,-0.99 0.29,-0.97 0.40,-0.92 0.52,-0.87 0.61,-0.80 0.71,-0.72 0.79,-0.63 0.87,-0.53 0.92,-0.42 0.97,-0.31 0.99,-0.19 1.01,-0.06 1.01,0.05 1.00,0.17 0.97,0.29 0.93,0.41 0.93,0.41 L 0.93,0.41 Z"></path></g><g transform="translate(462.4871314502468 271.06337540579943) rotate(25.54466894453413 5.280496877324136 7.694178862287046)" stroke="none"><path fill="#d3d3d3" d="M 0.71,-0.60 Q 0.71,-0.60 1.63,0.54 2.56,1.69 3.31,2.73 4.05,3.77 4.98,5.27 5.91,6.77 6.41,7.46 6.90,8.14 7.69,9.22 8.47,10.30 9.08,11.32 9.69,12.34 10.49,13.65 11.30,14.97 11.34,15.09 11.39,15.22 11.40,15.36 11.40,15.50 11.36,15.63 11.32,15.76 11.24,15.87 11.16,15.99 11.04,16.07 10.93,16.15 10.80,16.19 10.67,16.23 10.53,16.22 10.39,16.22 10.27,16.17 10.14,16.12 10.03,16.04 9.92,15.95 9.85,15.83 9.77,15.72 9.74,15.58 9.71,15.45 9.72,15.31 9.73,15.18 9.79,15.05 9.84,14.92 9.93,14.82 10.02,14.72 10.14,14.65 10.26,14.58 10.40,14.56 10.53,14.53 10.67,14.55 10.81,14.57 10.93,14.63 11.05,14.69 11.15,14.79 11.25,14.89 11.31,15.01 11.37,15.13 11.39,15.27 11.41,15.41 11.38,15.54 11.35,15.68 11.29,15.80 11.22,15.92 11.12,16.01 11.01,16.10 10.89,16.15 10.76,16.21 10.62,16.22 10.49,16.23 10.35,16.20 10.22,16.16 10.10,16.09 9.99,16.02 9.90,15.91 9.81,15.80 9.82,15.80 9.82,15.80 9.12,14.46 8.43,13.12 7.83,12.17 7.23,11.23 6.39,10.15 5.55,9.06 5.08,8.33 4.62,7.59 3.69,6.16 2.77,4.73 2.01,3.77 1.25,2.81 0.26,1.70 -0.71,0.60 -0.77,0.50 -0.83,0.41 -0.87,0.30 -0.91,0.20 -0.92,0.09 -0.93,-0.02 -0.91,-0.13 -0.90,-0.24 -0.86,-0.34 -0.81,-0.45 -0.75,-0.54 -0.68,-0.63 -0.59,-0.70 -0.51,-0.78 -0.41,-0.83 -0.31,-0.88 -0.20,-0.90 -0.09,-0.93 0.02,-0.92 0.13,-0.92 0.24,-0.89 0.35,-0.86 0.44,-0.81 0.54,-0.75 0.63,-0.68 0.71,-0.60 0.71,-0.60 L 0.71,-0.60 Z"></path></g><g transform="translate(526.9422590810157 233.87481031126345) rotate(25.54466894453413 -20.51867998720246 6.336510989282061)" stroke="none"><path fill="#d3d3d3" d="M 0.62,0.59 Q 0.62,0.59 -0.95,2.22 -2.53,3.85 -3.56,4.88 -4.59,5.92 -5.76,6.82 -6.93,7.73 -7.49,8.16 -8.05,8.60 -9.42,9.12 -10.79,9.64 -11.80,9.94 -12.80,10.25 -13.57,10.50 -14.33,10.75 -17.11,11.34 -19.89,11.94 -22.74,12.36 -25.59,12.78 -27.15,12.95 -28.72,13.12 -30.63,12.66 -32.53,12.20 -34.34,11.65 -36.16,11.11 -37.08,10.90 -38.01,10.70 -39.55,10.59 -41.09,10.49 -41.22,10.46 -41.36,10.43 -41.47,10.36 -41.59,10.29 -41.68,10.18 -41.76,10.07 -41.81,9.95 -41.86,9.82 -41.87,9.68 -41.87,9.55 -41.83,9.42 -41.79,9.28 -41.72,9.17 -41.64,9.06 -41.53,8.98 -41.42,8.90 -41.29,8.86 -41.16,8.82 -41.02,8.82 -40.88,8.82 -40.75,8.86 -40.63,8.91 -40.52,8.99 -40.41,9.08 -40.34,9.19 -40.26,9.31 -40.23,9.44 -40.19,9.57 -40.20,9.71 -40.21,9.84 -40.26,9.97 -40.32,10.10 -40.41,10.20 -40.50,10.30 -40.61,10.37 -40.73,10.44 -40.87,10.47 -41.00,10.49 -41.14,10.48 -41.27,10.46 -41.39,10.40 -41.52,10.34 -41.61,10.25 -41.71,10.15 -41.77,10.03 -41.84,9.91 -41.86,9.77 -41.88,9.64 -41.85,9.50 -41.83,9.37 -41.76,9.25 -41.70,9.13 -41.60,9.04 -41.50,8.94 -41.37,8.89 -41.25,8.83 -41.11,8.82 -40.97,8.81 -40.97,8.81 -40.97,8.81 -39.32,9.04 -37.66,9.28 -36.71,9.53 -35.76,9.78 -33.97,10.30 -32.19,10.82 -30.52,11.25 -28.86,11.67 -27.34,11.48 -25.82,11.28 -23.03,10.83 -20.24,10.38 -17.51,9.75 -14.79,9.12 -14.02,8.94 -13.26,8.77 -12.31,8.47 -11.37,8.17 -10.17,7.68 -8.98,7.19 -8.41,6.88 -7.84,6.56 -6.77,5.71 -5.69,4.85 -4.70,3.79 -3.71,2.74 -2.16,1.07 -0.62,-0.59 -0.54,-0.66 -0.46,-0.72 -0.37,-0.77 -0.27,-0.81 -0.17,-0.84 -0.07,-0.86 0.02,-0.85 0.13,-0.85 0.23,-0.82 0.33,-0.79 0.42,-0.74 0.51,-0.69 0.59,-0.62 0.66,-0.55 0.72,-0.46 0.77,-0.37 0.81,-0.27 0.84,-0.17 0.85,-0.07 0.86,0.02 0.84,0.13 0.83,0.23 0.79,0.33 0.75,0.42 0.69,0.51 0.62,0.59 0.62,0.59 L 0.62,0.59 Z"></path></g><g transform="translate(512.4191562711791 216.87178506403552) rotate(25.54466894453413 -1.2074932583092135 4.224056447831742)" stroke="none"><path fill="#d3d3d3" d="M 0.73,0.73 Q 0.73,0.73 -0.60,2.00 -1.93,3.26 -2.56,3.95 -3.18,4.63 -3.49,5.47 -3.80,6.32 -3.71,6.85 -3.63,7.39 -3.12,6.86 -2.61,6.33 -1.92,5.20 -1.22,4.06 -0.85,3.42 -0.48,2.78 -0.19,2.07 0.10,1.36 0.35,0.67 0.60,-0.00 0.99,-0.60 1.38,-1.20 1.45,-0.67 1.51,-0.14 1.24,0.51 0.98,1.16 0.43,1.48 -0.11,1.79 -0.88,2.47 -1.64,3.15 -2.06,3.60 -2.48,4.05 -2.76,4.90 -3.04,5.75 -3.23,6.49 -3.41,7.22 -4.29,7.46 -5.16,7.70 -4.80,7.22 -4.44,6.75 -3.89,6.11 -3.33,5.46 -3.01,5.03 -2.68,4.60 -2.19,4.00 -1.69,3.39 -1.45,2.79 -1.21,2.18 0.28,0.19 1.78,-1.79 1.99,-1.91 2.21,-2.03 2.45,-2.07 2.69,-2.11 2.93,-2.08 3.18,-2.04 3.39,-1.93 3.61,-1.82 3.78,-1.64 3.95,-1.46 4.06,-1.24 4.16,-1.02 4.19,-0.78 4.22,-0.54 4.17,-0.30 4.12,-0.06 4.00,0.15 3.88,0.36 3.69,0.52 3.51,0.68 3.28,0.77 3.05,0.87 2.81,0.88 2.57,0.90 2.33,0.84 2.09,0.77 1.89,0.64 1.68,0.50 1.53,0.31 1.38,0.12 1.30,-0.10 1.22,-0.33 1.22,-0.58 1.21,-0.82 1.29,-1.06 1.36,-1.29 1.51,-1.49 1.66,-1.68 1.86,-1.82 2.06,-1.96 2.29,-2.03 2.53,-2.10 2.77,-2.09 3.02,-2.08 3.25,-1.99 3.47,-1.91 3.66,-1.75 3.85,-1.59 3.98,-1.38 4.11,-1.18 4.17,-0.94 4.22,-0.70 4.20,-0.46 4.17,-0.21 4.07,0.00 3.97,0.23 3.81,0.41 3.64,0.59 3.64,0.59 3.64,0.59 2.54,2.00 1.44,3.42 1.15,3.98 0.86,4.54 0.31,5.16 -0.23,5.78 -0.79,6.38 -1.35,6.98 -1.94,7.82 -2.52,8.66 -3.06,9.09 -3.60,9.52 -4.74,8.67 -5.89,7.83 -5.77,7.25 -5.66,6.68 -5.45,5.80 -5.25,4.92 -4.96,4.18 -4.67,3.45 -4.35,2.97 -4.04,2.50 -3.57,2.08 -3.10,1.65 -2.17,0.69 -1.25,-0.26 -0.69,-0.55 -0.12,-0.83 1.06,-1.39 2.26,-1.96 2.77,-1.65 3.28,-1.34 3.00,-0.27 2.72,0.78 2.32,1.46 1.91,2.14 1.53,2.98 1.16,3.83 0.76,4.40 0.36,4.97 -0.34,6.28 -1.04,7.59 -2.10,8.79 -3.15,10.00 -3.85,9.87 -4.55,9.75 -4.84,9.30 -5.14,8.86 -5.31,8.16 -5.47,7.47 -5.43,6.63 -5.39,5.79 -4.98,4.63 -4.57,3.47 -3.92,2.70 -3.26,1.93 -2.00,0.60 -0.73,-0.73 -0.63,-0.81 -0.53,-0.89 -0.42,-0.94 -0.30,-0.99 -0.18,-1.01 -0.06,-1.04 0.06,-1.03 0.18,-1.02 0.30,-0.98 0.42,-0.95 0.53,-0.88 0.64,-0.82 0.73,-0.73 0.82,-0.64 0.88,-0.53 0.95,-0.42 0.98,-0.30 1.02,-0.18 1.03,-0.06 1.04,0.06 1.01,0.18 0.99,0.31 0.94,0.42 0.89,0.53 0.81,0.63 0.73,0.73 0.73,0.73 L 0.73,0.73 Z"></path></g><g transform="translate(578.354352883664 224.52974489450935) rotate(25.54466894453413 -3.6211752432721127 1.508716438646431)" stroke="none"><path fill="#d3d3d3" d="M 0.46,-1.09 Q 0.46,-1.09 1.07,-0.84 1.69,-0.59 2.46,-0.21 3.22,0.15 3.14,0.06 3.05,-0.02 3.18,0.06 3.30,0.16 3.41,0.28 3.51,0.41 3.58,0.55 3.64,0.69 3.68,0.85 3.71,1.01 3.70,1.17 3.70,1.33 3.65,1.48 3.61,1.63 3.53,1.77 3.45,1.91 3.34,2.03 3.23,2.14 3.10,2.23 2.96,2.31 2.81,2.36 2.66,2.41 2.50,2.43 2.34,2.44 2.18,2.42 2.03,2.39 1.88,2.33 1.73,2.27 0.70,2.31 -0.32,2.35 -1.48,2.52 -2.64,2.68 -3.21,2.85 -3.78,3.02 -4.47,3.25 -5.16,3.49 -5.84,3.70 -6.52,3.91 -6.63,4.02 -6.74,4.14 -6.88,4.18 -7.03,4.23 -7.19,4.23 -7.34,4.24 -7.49,4.21 -7.65,4.18 -7.79,4.12 -7.93,4.05 -8.05,3.95 -8.17,3.85 -8.26,3.73 -8.35,3.61 -8.42,3.47 -8.48,3.32 -8.50,3.17 -8.53,3.02 -8.52,2.86 -8.50,2.71 -8.46,2.56 -8.41,2.42 -8.33,2.28 -8.24,2.15 -8.13,2.04 -8.02,1.94 -7.89,1.86 -7.75,1.78 -7.11,1.48 -6.46,1.18 -5.60,1.03 -4.74,0.88 -2.96,0.77 -1.19,0.67 -0.51,0.64 0.16,0.61 0.62,0.45 1.07,0.29 1.23,0.27 1.39,0.26 1.54,0.28 1.70,0.31 1.84,0.37 1.99,0.43 2.12,0.52 2.24,0.62 2.34,0.74 2.44,0.86 2.51,1.00 2.58,1.14 2.61,1.30 2.64,1.45 2.64,1.61 2.63,1.77 2.59,1.92 2.55,2.07 2.47,2.21 2.39,2.34 2.28,2.46 2.17,2.57 2.04,2.66 1.91,2.74 1.76,2.79 1.61,2.84 0.63,2.63 -0.34,2.42 -1.29,2.19 -2.25,1.96 -3.39,1.98 -4.53,2.00 -5.67,1.96 -6.80,1.91 -8.20,2.24 -9.60,2.56 -9.78,2.59 -9.95,2.62 -10.13,2.59 -10.31,2.56 -10.47,2.48 -10.63,2.39 -10.75,2.26 -10.88,2.13 -10.95,1.96 -11.03,1.80 -11.05,1.62 -11.07,1.44 -11.03,1.26 -10.99,1.09 -10.90,0.93 -10.80,0.78 -10.67,0.66 -10.53,0.55 -10.36,0.48 -10.19,0.41 -10.01,0.40 -9.83,0.39 -9.66,0.44 -9.48,0.49 -9.33,0.59 -9.18,0.69 -9.07,0.84 -8.96,0.98 -8.91,1.15 -8.85,1.33 -8.85,1.51 -8.85,1.69 -8.91,1.86 -8.97,2.03 -9.08,2.17 -9.19,2.32 -9.34,2.42 -9.49,2.52 -9.66,2.57 -9.83,2.61 -10.01,2.60 -10.20,2.59 -10.36,2.53 -10.53,2.46 -10.67,2.34 -10.81,2.23 -10.90,2.07 -10.99,1.92 -11.03,1.74 -11.07,1.56 -11.05,1.38 -11.03,1.20 -10.95,1.04 -10.88,0.87 -10.75,0.74 -10.63,0.61 -10.47,0.53 -10.31,0.44 -10.31,0.44 -10.31,0.44 -8.58,0.13 -6.84,-0.18 -5.78,-0.27 -4.72,-0.36 -3.85,-0.41 -2.98,-0.47 -2.44,-0.37 -1.89,-0.27 -0.40,0.00 1.07,0.29 1.23,0.27 1.39,0.26 1.54,0.28 1.70,0.31 1.84,0.37 1.99,0.43 2.12,0.52 2.24,0.62 2.34,0.74 2.44,0.86 2.51,1.00 2.58,1.14 2.61,1.30 2.64,1.45 2.64,1.61 2.63,1.77 2.59,1.92 2.55,2.07 2.47,2.21 2.39,2.34 2.28,2.46 2.17,2.57 2.04,2.66 1.91,2.74 1.76,2.79 1.61,2.84 1.50,2.87 1.39,2.90 0.82,2.99 0.25,3.07 -0.40,3.09 -1.07,3.10 -2.11,3.23 -3.14,3.36 -3.72,3.50 -4.29,3.63 -4.92,3.73 -5.54,3.83 -6.14,3.99 -6.74,4.14 -6.88,4.18 -7.03,4.23 -7.19,4.23 -7.34,4.24 -7.49,4.21 -7.65,4.18 -7.79,4.12 -7.93,4.05 -8.05,3.95 -8.17,3.85 -8.26,3.73 -8.35,3.61 -8.42,3.47 -8.48,3.32 -8.50,3.17 -8.53,3.02 -8.52,2.86 -8.50,2.71 -8.46,2.56 -8.41,2.42 -8.33,2.28 -8.24,2.15 -8.13,2.04 -8.02,1.94 -7.89,1.86 -7.75,1.78 -8.04,2.25 -8.32,2.72 -7.77,2.13 -7.22,1.54 -6.59,1.36 -5.96,1.18 -5.20,0.91 -4.44,0.63 -3.63,0.42 -2.81,0.21 -2.26,0.19 -1.71,0.18 -1.03,0.10 -0.35,0.02 0.75,-0.06 1.86,-0.15 2.46,-0.09 3.05,-0.02 3.18,0.06 3.30,0.16 3.41,0.28 3.51,0.41 3.58,0.55 3.64,0.69 3.68,0.85 3.71,1.01 3.70,1.17 3.70,1.33 3.65,1.48 3.61,1.63 3.53,1.77 3.45,1.91 3.34,2.03 3.23,2.14 3.10,2.23 2.96,2.31 2.81,2.36 2.66,2.41 2.50,2.43 2.34,2.44 2.18,2.42 2.03,2.39 1.88,2.33 1.73,2.27 1.23,1.95 0.73,1.63 0.13,1.36 -0.46,1.09 -0.59,1.02 -0.71,0.94 -0.81,0.85 -0.92,0.75 -0.99,0.62 -1.07,0.50 -1.12,0.37 -1.16,0.23 -1.17,0.09 -1.18,-0.05 -1.16,-0.19 -1.14,-0.33 -1.08,-0.46 -1.02,-0.59 -0.94,-0.71 -0.85,-0.82 -0.74,-0.91 -0.63,-1.00 -0.50,-1.06 -0.37,-1.12 -0.23,-1.15 -0.09,-1.18 0.04,-1.18 0.19,-1.17 0.33,-1.13 0.46,-1.09 0.46,-1.09 L 0.46,-1.09 Z"></path></g><g transform="translate(432.25285211188543 196.0138019727242) rotate(25.54466894453413 -8.901672120596249 -1.3581027168901443)" stroke="none"><path fill="#d3d3d3" d="M 0,1.01 Q 0,1.01 -0.95,0.99 -1.90,0.97 -2.74,0.97 -3.58,0.98 -5.23,0.67 -6.87,0.36 -7.62,0.28 -8.37,0.20 -9.92,-0.14 -11.48,-0.50 -12.36,-0.62 -13.25,-0.74 -15.64,-1.26 -18.02,-1.78 -18.16,-1.84 -18.30,-1.90 -18.42,-2.00 -18.54,-2.10 -18.61,-2.24 -18.69,-2.37 -18.72,-2.52 -18.75,-2.67 -18.74,-2.83 -18.72,-2.98 -18.65,-3.12 -18.58,-3.26 -18.47,-3.37 -18.37,-3.48 -18.23,-3.55 -18.09,-3.62 -17.94,-3.64 -17.79,-3.67 -17.63,-3.64 -17.48,-3.61 -17.35,-3.54 -17.21,-3.46 -17.10,-3.35 -17.00,-3.24 -16.94,-3.10 -16.87,-2.95 -16.86,-2.80 -16.84,-2.65 -16.88,-2.50 -16.91,-2.35 -17.00,-2.21 -17.08,-2.08 -17.20,-1.98 -17.32,-1.89 -17.46,-1.83 -17.61,-1.77 -17.76,-1.77 -17.91,-1.76 -18.06,-1.81 -18.21,-1.85 -18.34,-1.94 -18.47,-2.03 -18.56,-2.15 -18.65,-2.27 -18.70,-2.42 -18.74,-2.57 -18.74,-2.72 -18.74,-2.88 -18.69,-3.02 -18.64,-3.17 -18.54,-3.29 -18.45,-3.41 -18.32,-3.50 -18.19,-3.58 -18.04,-3.62 -17.89,-3.66 -17.73,-3.65 -17.58,-3.64 -17.58,-3.64 -17.58,-3.64 -15.29,-3.06 -13.00,-2.48 -12.07,-2.35 -11.13,-2.21 -9.61,-1.94 -8.10,-1.68 -7.34,-1.54 -6.58,-1.40 -5.08,-1.19 -3.58,-0.98 -2.74,-0.97 -1.90,-0.97 -0.95,-0.99 0,-1.01 0.12,-0.99 0.24,-0.98 0.35,-0.93 0.47,-0.89 0.57,-0.82 0.67,-0.75 0.75,-0.66 0.83,-0.57 0.88,-0.46 0.94,-0.35 0.97,-0.24 1.00,-0.12 1.00,0.00 1.00,0.12 0.97,0.24 0.94,0.35 0.88,0.46 0.83,0.57 0.75,0.66 0.67,0.75 0.57,0.82 0.46,0.89 0.35,0.93 0.24,0.98 0.12,0.99 -0.00,1.01 -0.00,1.01 L 0,1.01 Z"></path></g><g transform="translate(427.7391099257186 213.27765065132098) rotate(25.54466894453413 22.32905445007127 -0.00043484388517356365)" stroke="none"><path fill="#d3d3d3" d="M 0.09,-0.96 Q 0.09,-0.96 0.96,-0.88 1.83,-0.79 3.08,-0.79 4.34,-0.80 5.78,-0.60 7.23,-0.40 7.86,-0.35 8.49,-0.31 9.96,-0.13 11.44,0.04 13.05,0.31 14.67,0.58 15.95,0.80 17.23,1.01 18.46,1.20 19.69,1.39 20.80,1.47 21.90,1.55 23.24,1.60 24.57,1.64 25.75,1.66 26.92,1.68 28.20,1.70 29.48,1.71 30.76,1.54 32.04,1.38 33.62,1.06 35.20,0.73 36.54,0.26 37.87,-0.21 38.60,-0.54 39.33,-0.87 40.17,-1.24 41.00,-1.62 42.40,-2.05 43.80,-2.49 43.93,-2.54 44.06,-2.60 44.19,-2.62 44.33,-2.64 44.46,-2.62 44.60,-2.61 44.73,-2.56 44.85,-2.52 44.97,-2.44 45.08,-2.37 45.18,-2.27 45.27,-2.17 45.33,-2.05 45.40,-1.93 45.44,-1.80 45.47,-1.67 45.48,-1.53 45.48,-1.39 45.45,-1.26 45.42,-1.13 45.36,-1.00 45.30,-0.88 45.21,-0.78 45.12,-0.67 45.01,-0.59 44.90,-0.51 45.16,-0.82 45.42,-1.13 45.33,-0.97 45.24,-0.81 45.11,-0.68 44.98,-0.56 44.81,-0.48 44.64,-0.41 44.46,-0.39 44.28,-0.37 44.10,-0.42 43.92,-0.46 43.76,-0.55 43.61,-0.65 43.49,-0.79 43.37,-0.93 43.31,-1.10 43.24,-1.27 43.24,-1.46 43.23,-1.64 43.28,-1.82 43.33,-1.99 43.44,-2.14 43.54,-2.29 43.69,-2.40 43.83,-2.51 44.01,-2.57 44.18,-2.62 44.37,-2.62 44.55,-2.62 44.72,-2.56 44.89,-2.50 45.04,-2.38 45.18,-2.27 45.28,-2.12 45.38,-1.97 45.43,-1.79 45.48,-1.61 45.47,-1.43 45.45,-1.25 45.38,-1.08 45.31,-0.91 45.19,-0.77 45.07,-0.63 44.92,-0.54 44.76,-0.45 44.58,-0.41 44.40,-0.37 44.22,-0.40 44.04,-0.42 43.87,-0.50 43.70,-0.58 43.57,-0.70 43.44,-0.83 43.36,-0.99 43.27,-1.16 43.25,-1.34 43.22,-1.52 43.51,-2.01 43.80,-2.49 43.93,-2.54 44.06,-2.60 44.19,-2.62 44.33,-2.64 44.46,-2.62 44.60,-2.61 44.73,-2.56 44.85,-2.52 44.97,-2.44 45.08,-2.37 45.18,-2.27 45.27,-2.17 45.33,-2.05 45.40,-1.93 45.44,-1.80 45.47,-1.67 45.48,-1.53 45.48,-1.39 45.45,-1.26 45.42,-1.13 45.36,-1.00 45.30,-0.88 45.21,-0.78 45.12,-0.67 45.01,-0.59 44.90,-0.51 43.84,-0.29 42.78,-0.07 42.18,0.07 41.59,0.22 40.74,0.38 39.88,0.54 39.10,0.79 38.32,1.05 36.90,1.55 35.48,2.05 33.85,2.39 32.22,2.74 30.85,2.91 29.48,3.09 28.19,3.09 26.91,3.10 25.72,3.09 24.54,3.09 23.17,3.07 21.81,3.06 20.65,3.00 19.48,2.95 18.24,2.81 16.99,2.67 15.70,2.52 14.42,2.37 12.85,2.19 11.28,2.02 9.76,1.95 8.24,1.89 7.54,1.79 6.84,1.69 5.57,1.52 4.29,1.35 3.52,1.32 2.74,1.29 2.19,1.22 1.63,1.14 0.77,1.05 -0.09,0.96 -0.21,0.94 -0.32,0.91 -0.43,0.86 -0.53,0.81 -0.62,0.73 -0.71,0.66 -0.78,0.56 -0.85,0.47 -0.89,0.36 -0.93,0.25 -0.95,0.13 -0.97,0.02 -0.96,-0.09 -0.94,-0.21 -0.91,-0.32 -0.87,-0.43 -0.80,-0.53 -0.74,-0.62 -0.65,-0.70 -0.56,-0.78 -0.46,-0.84 -0.36,-0.90 -0.25,-0.93 -0.13,-0.96 -0.02,-0.96 0.09,-0.96 0.09,-0.96 L 0.09,-0.96 Z"></path></g><g transform="translate(432.9640306060819 229.20018532814993) rotate(25.54466894453413 2.4552751994941495 -2.455275199494153)" stroke="none"><path fill="#d3d3d3" d="M -0.83,-0.83 Q -0.83,-0.83 -0.33,-1.33 0.15,-1.83 1.96,-3.65 3.77,-5.47 3.88,-5.56 3.99,-5.64 4.13,-5.70 4.26,-5.76 4.40,-5.79 4.54,-5.82 4.69,-5.81 4.83,-5.80 4.97,-5.76 5.11,-5.71 5.23,-5.64 5.36,-5.56 5.46,-5.46 5.56,-5.36 5.64,-5.23 5.71,-5.11 5.75,-4.97 5.80,-4.83 5.81,-4.69 5.82,-4.54 5.79,-4.40 5.76,-4.26 5.70,-4.13 5.64,-4.00 5.55,-3.88 5.47,-3.77 4.74,-3.67 4.01,-3.58 3.86,-3.70 3.71,-3.83 3.61,-3.99 3.51,-4.16 3.46,-4.35 3.42,-4.53 3.44,-4.73 3.45,-4.92 3.53,-5.10 3.61,-5.28 3.74,-5.42 3.88,-5.56 4.05,-5.66 4.22,-5.75 4.41,-5.78 4.60,-5.82 4.79,-5.79 4.98,-5.76 5.16,-5.67 5.33,-5.58 5.46,-5.44 5.60,-5.31 5.68,-5.13 5.77,-4.96 5.79,-4.76 5.82,-4.57 5.78,-4.38 5.74,-4.19 5.64,-4.02 5.54,-3.85 5.40,-3.72 5.25,-3.60 5.07,-3.52 4.89,-3.45 4.70,-3.43 4.50,-3.42 4.32,-3.47 4.13,-3.52 3.97,-3.63 3.80,-3.73 3.68,-3.89 3.56,-4.04 3.50,-4.22 3.43,-4.41 3.43,-4.60 3.43,-4.79 3.49,-4.98 3.55,-5.16 3.66,-5.32 3.78,-5.48 3.94,-5.59 4.10,-5.70 4.28,-5.75 4.47,-5.81 4.66,-5.80 4.86,-5.79 4.31,-5.63 3.77,-5.47 3.88,-5.56 3.99,-5.64 4.13,-5.70 4.26,-5.76 4.40,-5.79 4.54,-5.82 4.69,-5.81 4.83,-5.80 4.97,-5.76 5.11,-5.71 5.23,-5.64 5.36,-5.56 5.46,-5.46 5.56,-5.36 5.64,-5.23 5.71,-5.11 5.75,-4.97 5.80,-4.83 5.81,-4.69 5.82,-4.54 5.79,-4.40 5.76,-4.26 5.70,-4.13 5.64,-4.00 5.56,-3.88 5.47,-3.77 3.65,-1.96 1.83,-0.15 1.33,0.33 0.83,0.83 0.72,0.91 0.60,1.00 0.47,1.06 0.35,1.12 0.21,1.14 0.07,1.17 -0.07,1.16 -0.21,1.15 -0.34,1.11 -0.48,1.07 -0.60,0.99 -0.72,0.92 -0.82,0.82 -0.92,0.72 -0.99,0.60 -1.07,0.48 -1.11,0.34 -1.15,0.21 -1.16,0.07 -1.17,-0.07 -1.14,-0.21 -1.12,-0.34 -1.06,-0.47 -1.00,-0.60 -0.91,-0.72 -0.83,-0.83 -0.83,-0.83 L -0.83,-0.83 Z"></path></g><g transform="translate(136.9510490958993 131.50578998969513) rotate(0 39.800864357788555 -7.184811072772618)" stroke="none"><path fill="#d3d3d3" d="M 0.41,-2.05 Q 0.41,-2.05 2.00,-1.74 3.59,-1.43 7.20,-0.21 10.81,0.99 12.70,1.85 14.60,2.70 16.29,3.34 17.98,3.97 19.22,4.14 20.47,4.31 21.59,4.34 22.72,4.38 24.10,4.39 25.49,4.41 28.85,2.59 32.21,0.78 33.74,-0.19 35.27,-1.17 36.82,-2.71 38.36,-4.24 40.26,-5.17 42.17,-6.10 43.64,-6.53 45.12,-6.96 52.27,-9.52 59.43,-12.08 63.15,-13.47 66.86,-14.86 70.24,-16.96 73.61,-19.06 76.20,-20.66 78.80,-22.26 79.02,-22.36 79.24,-22.45 79.48,-22.47 79.72,-22.49 79.96,-22.43 80.19,-22.37 80.40,-22.24 80.60,-22.11 80.75,-21.92 80.90,-21.73 80.98,-21.50 81.06,-21.27 81.07,-21.03 81.08,-20.79 81.00,-20.56 80.93,-20.33 80.79,-20.13 80.65,-19.94 80.45,-19.80 80.25,-19.66 80.02,-19.59 79.79,-19.52 79.55,-19.53 79.31,-19.53 79.08,-19.62 78.86,-19.70 78.67,-19.85 78.48,-20.01 78.35,-20.21 78.22,-20.41 78.16,-20.65 78.11,-20.88 78.13,-21.13 78.15,-21.37 78.25,-21.59 78.34,-21.81 78.50,-21.99 78.67,-22.17 78.88,-22.29 79.09,-22.40 79.33,-22.45 79.56,-22.49 79.80,-22.46 80.04,-22.43 80.26,-22.32 80.47,-22.21 80.64,-22.04 80.81,-21.87 80.92,-21.65 81.03,-21.43 81.06,-21.19 81.09,-20.95 81.04,-20.71 81.00,-20.48 80.88,-20.27 80.76,-20.06 80.58,-19.90 80.40,-19.74 80.40,-19.74 80.40,-19.74 77.84,-18.08 75.28,-16.42 71.68,-14.10 68.08,-11.78 64.37,-10.26 60.66,-8.74 53.33,-5.95 46.01,-3.16 44.82,-2.98 43.62,-2.79 42.25,-2.26 40.87,-1.73 39.17,0.16 37.47,2.06 35.86,3.17 34.26,4.28 31.15,6.21 28.04,8.14 26.74,8.42 25.43,8.70 23.87,8.62 22.32,8.54 21.01,8.33 19.70,8.13 18.20,7.75 16.71,7.37 14.94,6.70 13.17,6.04 11.43,5.33 9.69,4.62 6.22,3.66 2.76,2.70 1.17,2.38 -0.41,2.05 -0.65,1.97 -0.89,1.89 -1.10,1.76 -1.31,1.62 -1.49,1.44 -1.66,1.26 -1.79,1.04 -1.92,0.82 -1.99,0.58 -2.06,0.34 -2.07,0.09 -2.08,-0.16 -2.03,-0.40 -1.98,-0.65 -1.88,-0.88 -1.77,-1.11 -1.61,-1.30 -1.45,-1.50 -1.25,-1.65 -1.05,-1.81 -0.82,-1.91 -0.59,-2.00 -0.34,-2.05 -0.09,-2.09 0.15,-2.07 0.41,-2.05 0.41,-2.05 L 0.41,-2.05 Z"></path></g></svg>